<?xml version="1.0" encoding="utf-8"?>
<!-- Generator: Adobe Illustrator 16.0.0, SVG Export Plug-In . SVG Version: 6.00 Build 0)  -->
<!DOCTYPE svg PUBLIC "-//W3C//DTD SVG 1.1//EN" "http://www.w3.org/Graphics/SVG/1.1/DTD/svg11.dtd">
<svg version="1.1" id="Layer_1" xmlns="http://www.w3.org/2000/svg" xmlns:xlink="http://www.w3.org/1999/xlink" x="0px" y="0px"
	 width="238px" height="30px" viewBox="0 0 238 30" enable-background="new 0 0 238 30" xml:space="preserve">
<g>
	<path fill="#333333" d="M6.643,24.765h10.369v4.425H1.087V0.811h5.555V24.765z"/>
	<path fill="#333333" d="M32.917,23.128h-7.484l-1.521,6.062h-5.594l7.991-28.379h5.77l7.972,28.379h-5.594L32.917,23.128z
		 M26.562,18.703h5.224L29.233,8.665h-0.117L26.562,18.703z"/>
	<path fill="#333333" d="M47.808,17.904v11.285h-5.536V0.83h9.258c2.793,0,4.986,0.737,6.578,2.212s2.388,3.524,2.388,6.149
		c0,1.481-0.331,2.758-0.994,3.83c-0.663,1.072-1.631,1.927-2.904,2.563c1.455,0.493,2.504,1.312,3.148,2.455
		c0.643,1.144,0.964,2.573,0.964,4.288v2.008c0,0.78,0.091,1.615,0.273,2.505s0.5,1.537,0.955,1.939v0.409h-5.73
		c-0.455-0.416-0.74-1.092-0.857-2.027s-0.175-1.891-0.175-2.865v-1.93c0-1.416-0.29-2.514-0.868-3.294
		c-0.578-0.779-1.407-1.169-2.485-1.169H47.808z M47.808,13.479h3.703c1.13,0,1.988-0.344,2.573-1.033
		c0.585-0.688,0.877-1.669,0.877-2.943c0-1.299-0.292-2.332-0.877-3.099c-0.584-0.767-1.436-1.15-2.553-1.15h-3.723V13.479z"/>
	<path fill="#333333" d="M77.513,21.783c0-1.104-0.286-1.979-0.857-2.622c-0.572-0.644-1.579-1.276-3.021-1.9
		c-2.95-1.026-5.162-2.192-6.637-3.499c-1.475-1.306-2.212-3.135-2.212-5.486c0-2.326,0.858-4.22,2.573-5.682
		C69.073,1.132,71.262,0.4,73.926,0.4c2.703,0,4.899,0.816,6.588,2.446c1.689,1.631,2.508,3.688,2.456,6.169l-0.039,0.117h-5.379
		c0-1.299-0.325-2.352-0.975-3.157c-0.65-0.806-1.566-1.209-2.748-1.209c-1.105,0-1.966,0.335-2.583,1.004
		c-0.617,0.67-0.926,1.511-0.926,2.524c0,0.936,0.344,1.705,1.033,2.31c0.688,0.604,1.884,1.276,3.586,2.018
		c2.69,0.909,4.713,2.062,6.071,3.46c1.358,1.396,2.037,3.284,2.037,5.662c0,2.455-0.819,4.379-2.456,5.77
		c-1.637,1.39-3.814,2.085-6.529,2.085c-2.703,0-5.045-0.789-7.027-2.368c-1.982-1.579-2.94-3.843-2.875-6.793l0.039-0.116h5.399
		c0,1.754,0.371,3.015,1.111,3.781c0.74,0.767,1.858,1.149,3.353,1.149c1.169,0,2.037-0.312,2.602-0.936
		C77.23,23.693,77.513,22.849,77.513,21.783z"/>
	<path fill="#333333" d="M91.877,21.062l0.604,3.84l0.117,0.02l0.799-3.859l4.756-20.251h2.144l4.795,20.251l0.78,3.898h0.117
		l0.644-3.898l3.996-20.251h2.378l-5.925,28.379h-2.164L99.85,7.534l-0.546-2.631h-0.117L98.68,7.534l-5.146,21.655h-2.164
		L85.465,0.811h2.359L91.877,21.062z"/>
	<path fill="#333333" d="M120.102,29.189h-2.359V0.811h2.359V29.189z"/>
	<path fill="#333333" d="M140.333,15.468h-11.149v11.733h12.806v1.988h-15.145V0.811h15.028v2.065h-12.689v10.604h11.149V15.468z"/>
	<path fill="#333333" d="M163.235,25.33c-0.52,1.065-1.479,2.044-2.875,2.934c-1.397,0.891-3.174,1.335-5.331,1.335
		c-2.846,0-5.136-0.903-6.87-2.709c-1.735-1.807-2.603-4.398-2.603-7.777v-8.439c0-3.313,0.818-5.854,2.456-7.621
		c1.637-1.768,3.826-2.651,6.568-2.651c2.677,0,4.749,0.699,6.218,2.096c1.468,1.397,2.234,3.343,2.3,5.838l-0.039,0.117h-2.183
		c-0.078-1.91-0.637-3.385-1.677-4.425c-1.039-1.04-2.579-1.56-4.619-1.56c-2.066,0-3.697,0.699-4.893,2.099
		s-1.793,3.426-1.793,6.081v8.492c0,2.759,0.644,4.86,1.93,6.305c1.286,1.445,3.021,2.167,5.204,2.167
		c1.599,0,2.878-0.286,3.84-0.86s1.631-1.271,2.008-2.094v-7.396h-5.887v-2.047h8.245V25.33z"/>
	<path fill="#333333" d="M172.474,0.811l7.895,24.851h0.116l7.914-24.851h3.021v28.379H189.1V16.734l0.234-11.598l-0.117-0.019
		l-8.011,24.071h-1.56l-7.991-24.033l-0.117,0.02l0.234,11.559v12.455h-2.3V0.811H172.474z"/>
	<path fill="#333333" d="M210.736,21.315h-10.351l-2.417,7.874h-2.416l8.985-28.379h2.124l8.889,28.379h-2.417L210.736,21.315z
		 M201.049,19.171h9.044l-4.444-14.599h-0.116L201.049,19.171z"/>
	<path fill="#333333" d="M236.913,29.189h-2.34L221.904,5.43l-0.117,0.02v23.74h-2.358V0.811h2.358l12.67,23.76l0.116-0.02V0.811
		h2.34V29.189z"/>
</g>
</svg>
