<?xml version="1.0" encoding="utf-8"?>
<!-- Generator: Adobe Illustrator 16.0.0, SVG Export Plug-In . SVG Version: 6.00 Build 0)  -->
<!DOCTYPE svg PUBLIC "-//W3C//DTD SVG 1.1//EN" "http://www.w3.org/Graphics/SVG/1.1/DTD/svg11.dtd">
<svg version="1.1" xmlns="http://www.w3.org/2000/svg" xmlns:xlink="http://www.w3.org/1999/xlink" x="0px" y="0px" width="200px"
	 height="200px" viewBox="0 0 200 200" enable-background="new 0 0 200 200" xml:space="preserve">
<g id="Base" display="none">
	<path id="Sky_3_" fill="#FF0000" d="M181.991,100.539c0,45.948-37.158,83.19-82.989,83.19c-45.833,0-82.993-37.242-82.993-83.19
		c0-45.945,37.16-83.19,82.993-83.19C144.833,17.349,181.991,54.594,181.991,100.539"/>
	<path id="Sky_2_" fill="#FF0000" d="M181.991,100.539c0,45.948-37.158,83.19-82.989,83.19c-45.833,0-82.993-37.242-82.993-83.19
		c0-45.945,37.16-83.19,82.993-83.19C144.833,17.349,181.991,54.594,181.991,100.539"/>
</g>
<g id="Launch">
	<g id="Rocket">
	</g>
</g>
<g id="Build">
	<g id="Rocket_1_">
	</g>
	<g id="hook">
		<g id="Layer_10">
		</g>
	</g>
</g>
<g id="Design">
	<path id="BG" fill="#0D6EDC" d="M186.491,100.539c0,48.439-39.173,87.702-87.489,87.702c-48.318,0-87.494-39.263-87.494-87.702
		c0-48.436,39.175-87.701,87.494-87.701C147.318,12.837,186.491,52.103,186.491,100.539"/>
	<g id="blueprints">
		<line fill="none" stroke="#FFFFFF" stroke-miterlimit="10" x1="99.5" y1="187" x2="99.5" y2="13"/>
		<g>
			<g>
				<line fill="none" stroke="#FFFFFF" stroke-miterlimit="10" x1="130" y1="30.5" x2="105" y2="30.5"/>
				<g>
					<polygon fill="#FFFFFF" points="135.574,30.5 128.112,27.451 129.883,30.5 128.112,33.548 					"/>
				</g>
				<g>
					<polygon fill="#FFFFFF" points="100,30.5 107.462,27.451 105.691,30.5 107.462,33.548 					"/>
				</g>
			</g>
		</g>
		<g>
			<g>
				<line fill="none" stroke="#FFFFFF" stroke-miterlimit="10" x1="56.5" y1="42" x2="56.5" y2="151"/>
				<g>
					<polygon fill="#FFFFFF" points="57,36.501 53.951,43.963 57,42.192 60.048,43.963 					"/>
				</g>
				<g>
					<polygon fill="#FFFFFF" points="57,155.858 53.951,148.396 57,150.167 60.048,148.396 					"/>
				</g>
			</g>
		</g>
		<line fill="none" stroke="#FFFFFF" stroke-miterlimit="10" x1="33" y1="156.5" x2="167" y2="156.5"/>
		<line fill="none" stroke="#FFFFFF" stroke-miterlimit="10" x1="39" y1="35.5" x2="159" y2="35.5"/>
		<line fill="none" stroke="#FFFFFF" stroke-miterlimit="10" x1="12" y1="92.5" x2="186" y2="92.5"/>
		<g>
			<g>
				<line fill="none" stroke="#FFFFFF" stroke-miterlimit="10" x1="113" y1="111.5" x2="86" y2="111.5"/>
				<g>
					<polygon fill="#FFFFFF" points="118.5,111.5 111.038,108.451 112.809,111.5 111.038,114.549 					"/>
				</g>
				<g>
					<polygon fill="#FFFFFF" points="81,111.5 88.462,108.451 86.691,111.5 88.462,114.549 					"/>
				</g>
			</g>
		</g>
		<g>
			<g>
				<line fill="none" stroke="#FFFFFF" stroke-miterlimit="10" x1="118.538" y1="118.591" x2="113.773" y2="135.71"/>
				<g>
					<polygon fill="#FFFFFF" points="119.958,113.489 115.02,119.86 118.432,118.972 120.894,121.495 					"/>
				</g>
				<g>
					<polygon fill="#FFFFFF" points="112.354,140.812 111.417,132.806 113.88,135.329 117.291,134.44 					"/>
				</g>
			</g>
		</g>
		<text transform="matrix(1 0 0 1 123.9912 106.3984)" fill="#FFFFFF" font-family="'Monaco'" font-size="8">15</text>
		<text transform="matrix(1 0 0 1 118.5 57.7119)" fill="#FFFFFF" font-family="'Monaco'" font-size="8">88</text>
		<text transform="matrix(1 0 0 1 81 167.3125)" fill="#FFFFFF" font-family="'Monaco'" font-size="8">105</text>
		<text transform="matrix(1 0 0 1 80.9995 122.0859)" fill="#FFFFFF" font-family="'Monaco'" font-size="8">480</text>
		<text transform="matrix(1 0 0 1 33 123.7832)" fill="#FFFFFF" font-family="'Monaco'" font-size="8">1020</text>
		<text transform="matrix(1 0 0 1 110.5 28.6162)" fill="#FFFFFF" font-family="'Monaco'" font-size="8">260</text>
	</g>
	<g id="rocket">
		<path fill="none" stroke="#FFFFFF" stroke-miterlimit="10" d="M130.834,119.941c-3.307-4.158-6.941-6.916-10.193-8.74
			c1.286-7.322,2.07-14.803,2.07-21.982c0-14.005-3.155-25.596-7.17-34.355c-0.717-1.564-1.458-3.049-2.217-4.429
			C108.178,41.076,102.364,36,99.941,36c-0.023,0-0.049,0.002-0.074,0.005C99.842,36.002,99.816,36,99.791,36
			c-2.417,0-8.213,5.057-13.352,14.382c-0.759,1.378-1.501,2.86-2.219,4.422c-4.028,8.766-7.198,20.378-7.198,34.415
			c0,7.161,0.789,14.607,2.068,21.897c-3.274,1.823-6.957,4.601-10.317,8.825c-7.069,8.887-5.426,23.201,0.099,34.928
			c0.12,0.109,0.26,0.988,1.569,0.988c1.2,0,1.221-1.025,1.252-1.453c-0.378-10.748,12.104-11.735,16.095-11.777
			c0.541,1.41,1.084,2.787,1.628,4.084c0.365,0.694,1.109,1.174,2.057,1.512c0.766,2.164,1.648,4.18,2.582,5.936
			c0.739,1.106,3.973,1.238,6.022,1.224c0.025-0.001-0.02,0.118,0.004,0.118c0,0,0.074,0,0.1,0c2.05,0,5.396-0.108,6.136-1.217
			c0.952-1.789,1.786-3.96,2.503-6.166c0.676-0.317,1.206-0.793,1.496-1.344c0.559-1.332,1.118-2.712,1.672-4.165
			c3.908,0.032,16.49,0.981,16.109,11.788c0.031,0.428-0.062,1.456,1.139,1.456c1.31,0,1.478-0.876,1.598-0.985
			C136.358,143.141,137.902,128.828,130.834,119.941z"/>
		<path fill="none" stroke="#FFFFFF" stroke-miterlimit="10" d="M100.008,84.562c-4.466,0-8.085,3.629-8.085,8.106
			c0,4.476,3.62,8.105,8.085,8.105s8.086-3.629,8.086-8.105C108.094,88.191,104.474,84.562,100.008,84.562z M100.008,97.476
			c-2.641,0-4.779-2.153-4.779-4.808c0-2.656,2.139-4.809,4.779-4.809c2.64,0,4.779,2.153,4.779,4.809
			C104.787,95.323,102.647,97.476,100.008,97.476z"/>
		<path fill="none" stroke="#FFFFFF" stroke-miterlimit="10" d="M100.008,54.748c-6.502,0-11.771,5.283-11.771,11.798
			c0,6.516,5.269,11.799,11.771,11.799c6.5,0,11.771-5.283,11.771-11.799C111.778,60.03,106.508,54.748,100.008,54.748z
			 M100.008,74.452c-4.355,0-7.887-3.54-7.887-7.906c0-4.366,3.531-7.906,7.887-7.906s7.887,3.54,7.887,7.906
			C107.895,70.912,104.363,74.452,100.008,74.452z"/>
	</g>
	<path id="Overlay" fill="#3C3C3C" d="M99.503,7.759c-51.117,0-92.56,41.539-92.56,92.78c0,51.245,41.443,92.78,92.56,92.78
		c51.115,0,92.555-41.535,92.555-92.78C192.058,49.297,150.618,7.759,99.503,7.759z M98.778,183.73
		c-45.833,0-82.993-37.242-82.993-83.192c0-45.944,37.16-83.19,82.993-83.19c45.831,0,82.989,37.246,82.989,83.19
		C181.768,146.488,144.609,183.73,98.778,183.73z"/>
</g>
</svg>
