<?xml version="1.0" encoding="utf-8"?>
<!-- Generator: Adobe Illustrator 16.0.0, SVG Export Plug-In . SVG Version: 6.00 Build 0)  -->
<!DOCTYPE svg PUBLIC "-//W3C//DTD SVG 1.1//EN" "http://www.w3.org/Graphics/SVG/1.1/DTD/svg11.dtd">
<svg version="1.1" xmlns="http://www.w3.org/2000/svg" xmlns:xlink="http://www.w3.org/1999/xlink" x="0px" y="0px" width="200px"
	 height="200px" viewBox="0 0 200 200" enable-background="new 0 0 200 200" xml:space="preserve">
<g id="Base" display="none">
	<rect display="inline" fill="#32B34A" width="200" height="200"/>
</g>
<g id="Launch">
	<path d="M192.281,100.539c0,51.244-41.439,92.779-92.555,92.779c-51.117,0-92.561-41.535-92.561-92.779
		c0-51.242,41.443-92.78,92.561-92.78C150.842,7.759,192.281,49.297,192.281,100.539"/>
	<path id="Sky_1_" fill="#46D364" d="M187.211,100.539c0,48.437-39.171,87.697-87.484,87.697c-48.316,0-87.49-39.261-87.49-87.697
		c0-48.435,39.174-87.698,87.49-87.698C148.04,12.841,187.211,52.104,187.211,100.539"/>
	<path id="Clouds" fill="#FFFFFF" d="M99.727,184.562c46.555,0,84.3-37.831,84.3-84.505c0-7.842-1.07-15.43-3.063-22.635
		c-19.604,8.699-33.284,28.368-33.284,51.244c0,3.573,0.338,7.067,0.976,10.454c-1.832-0.41-3.734-0.634-5.689-0.634
		c-12.278,0-22.563,8.529-25.297,19.999c-0.305-0.027-0.613-0.048-0.926-0.048c-4.259,0-7.896,2.643-9.389,6.378
		c-2.215-1.215-4.756-1.906-7.458-1.906c-2.552,0-4.958,0.618-7.083,1.71c-1.714-5.983-7.21-10.361-13.729-10.361
		c-0.886,0-1.752,0.085-2.593,0.239c-1.965-12.451-12.718-21.972-25.69-21.972c-0.323,0-0.643,0.014-0.962,0.025
		C46.26,113.68,33.239,98.163,15.889,91.126c-0.308,2.936-0.468,5.914-0.468,8.931C15.421,146.731,53.168,184.562,99.727,184.562z"
		/>
	<path id="Overlay_1_" fill="#3C3C3C" d="M100.002,7.76c-51.116,0-92.56,41.539-92.56,92.779c0,51.244,41.443,92.779,92.56,92.779
		s92.556-41.535,92.556-92.779C192.558,49.299,151.118,7.76,100.002,7.76z M99.277,183.73c-45.832,0-82.992-37.242-82.992-83.191
		c0-45.943,37.16-83.189,82.992-83.189c45.831,0,82.989,37.246,82.989,83.189C182.267,146.488,145.108,183.73,99.277,183.73z"/>
	<g id="Rocket">
		<defs>
			<filter id="Adobe_OpacityMaskFilter" filterUnits="userSpaceOnUse" x="94.391" y="117.407" width="11.194" height="53.052">
				<feColorMatrix  type="matrix" values="1 0 0 0 0  0 1 0 0 0  0 0 1 0 0  0 0 0 1 0"/>
			</filter>
		</defs>
		<mask maskUnits="userSpaceOnUse" x="94.391" y="117.407" width="11.194" height="53.052" id="SVGID_1_">
			<g filter="url(#Adobe_OpacityMaskFilter)">
				
					<linearGradient id="SVGID_2_" gradientUnits="userSpaceOnUse" x1="-738.6953" y1="395.9404" x2="-738.082" y2="395.9404" gradientTransform="matrix(0 -86.543 -86.543 0 34365.8125 -63758.4844)">
					<stop  offset="0" style="stop-color:#000000"/>
					<stop  offset="1" style="stop-color:#FFFFFF"/>
				</linearGradient>
				<rect x="94.391" y="117.407" fill="url(#SVGID_2_)" width="11.194" height="53.052"/>
			</g>
		</mask>
		<linearGradient id="SVGID_3_" gradientUnits="userSpaceOnUse" x1="94.3906" y1="143.9336" x2="105.585" y2="143.9336">
			<stop  offset="0" style="stop-color:#FFFFFF"/>
			<stop  offset="1" style="stop-color:#FFFFFF"/>
		</linearGradient>
		<rect x="94.391" y="117.407" mask="url(#SVGID_1_)" fill="url(#SVGID_3_)" width="11.194" height="53.052"/>
		<path fill="#C12121" d="M88.66,71.716c0,0-11.061,1.127-19.887,12.225c-7.069,8.887-5.426,23.202,0.098,34.928
			c0.12,0.109,0.261,0.988,1.57,0.988c1.199,0,1.221-1.025,1.252-1.453C71.243,105.617,89,106.645,89,106.645v-7.933
			c0,7.171,2.344,14.349,5.056,19.446c0.739,1.106,3.973,0.988,6.022,0.974c0.025-0.001-0.02-0.132,0.004-0.132c0,0,0.074,0,0.1,0
			c2.05,0,5.396,0.142,6.136-0.967c3.643-6.843,5.595-17.377,5.595-26.668C111.912,76.89,88.66,71.716,88.66,71.716z"/>
		<path fill="#ED2A2A" d="M130.834,83.941c-3.307-4.157-6.941-6.916-10.193-8.74c1.286-7.323,2.07-14.803,2.07-21.982
			c0-14.005-3.155-25.596-7.17-34.355c-0.717-1.564-1.458-3.049-2.217-4.429C108.178,5.076,102.364,0,99.941,0
			c-0.023,0-0.049,0.002-0.074,0.005C99.842,0.002,99.816,0,99.791,0c-2.417,0-8.213,5.057-13.352,14.382
			c-0.76,1.378-1.502,2.86-2.219,4.422c-4.029,8.766-7.198,20.378-7.198,34.415c0,20.229,6.207,42.759,12.395,57.492
			c1.255,2.385,6.894,2.289,10.374,2.289c0.025,0,0.051,0,0.076,0s0.05,0,0.074,0c3.482,0,9.12,0.096,10.375-2.289
			c0.559-1.332,1.118-2.681,1.672-4.134c3.908,0.032,16.49,0.997,16.109,11.804c0.031,0.428-0.062,1.464,1.139,1.464
			c1.31,0,1.478-0.872,1.598-0.981C136.358,107.137,137.902,92.828,130.834,83.941z"/>
		<ellipse fill="#C12121" cx="100.008" cy="56.668" rx="8.086" ry="8.106"/>
		<ellipse fill="#FFFFFF" cx="100.008" cy="56.668" rx="4.779" ry="4.808"/>
		<ellipse fill="#C12121" cx="100.008" cy="30.546" rx="11.771" ry="11.799"/>
		<ellipse fill="#FFFFFF" cx="100.008" cy="30.546" rx="7.887" ry="7.906"/>
	</g>
</g>
<g id="Build">
	<g id="Rocket_1_">
	</g>
	<g id="hook">
		<g id="Layer_10">
		</g>
	</g>
</g>
<g id="Design">
	<g id="blueprints">
	</g>
	<g id="rocket">
	</g>
</g>
</svg>
