<?xml version="1.0" encoding="utf-8"?>
<!-- Generator: Adobe Illustrator 16.0.0, SVG Export Plug-In . SVG Version: 6.00 Build 0)  -->
<!DOCTYPE svg PUBLIC "-//W3C//DTD SVG 1.1//EN" "http://www.w3.org/Graphics/SVG/1.1/DTD/svg11.dtd">
<svg version="1.1" xmlns="http://www.w3.org/2000/svg" xmlns:xlink="http://www.w3.org/1999/xlink" x="0px" y="0px" width="200px"
	 height="200px" viewBox="0 0 200 200" enable-background="new 0 0 200 200" xml:space="preserve">
<g id="Base" display="none">
</g>
<g id="Launch">
	<g id="Rocket">
	</g>
</g>
<g id="Build">
	<path id="Sky_5_" fill="#FFE269" d="M186.818,100c0,48.067-38.872,87.027-86.816,87.027c-47.946,0-86.82-38.96-86.82-87.027
		c0-48.063,38.874-87.026,86.82-87.026C147.946,12.974,186.818,51.937,186.818,100"/>
	<path fill="#848484" d="M38,129.42l12.506,12.506L40.432,152h4.682L51,146.113V152h6V20.439c-2.046,1.021-4.047,2.118-6,3.289
		v16.825l-9.924-9.923c-0.859,0.688-1.707,1.389-2.539,2.108l11.987,12.002L38,57.258v-24.05c-2.088,1.832-4.091,3.757-6,5.773V152
		h6V129.42z M51,137.739l-12.012-12.011L51,113.719V137.739z M51,105.371L38.873,93.232L51,81.293V105.371z M51,49.039v23.947
		L38.836,61.045L51,49.039z M38,64.622l12.51,12.515L38,89.645V64.622z M38,97.024l12.506,12.507L38,122.037V97.024z"/>
	<path fill="#848484" d="M147.99,171l12.011-12.011l2.248,2.248c0.741-0.804,1.47-1.62,2.182-2.451L163.646,158h1.448
		c1.618-1.933,3.157-3.934,4.61-6H23.744c1.869,2.659,3.881,5.209,6.021,7.644l0.654-0.654L42.431,171h-0.664
		c2.757,2.163,5.643,4.168,8.646,6h92.626c3.003-1.832,5.889-3.837,8.646-6H147.99z M34.112,158h25.011l-12.506,12.506L34.112,158z
		 M50.805,171l12.011-12.011L74.825,171H50.805z M66.508,158H91.52l-12.507,12.506L66.508,158z M83.173,171l12.139-12.126
		L107.251,171H83.173z M98.899,158h25.022l-12.515,12.51L98.899,158z M115.558,171l11.941-12.164L139.505,171H115.558z M131.286,158
		h25.057l-12.54,12.524L131.286,158z"/>
	<g id="Rocket_1_">
		<path fill="#C12121" d="M64.964,112.461c0,0-9.658,0.984-17.366,10.676c-6.174,7.76-4.738,20.26,0.086,30.5
			c0.104,0.096,0.227,0.863,1.37,0.863c1.048,0,0.937-0.896,0.964-1.269C49.624,142.065,65,142.962,65,142.962v-6.928
			c0,6.263,2.178,12.53,4.545,16.981c0.646,0.967,3.534,0.987,5.324,0.976c0.021-0.002,0.048,0.009,0.068,0.009c0,0,0.064,0,0.088,0
			c1.79,0,4.712-0.001,5.356-0.969c3.182-5.976,4.887-15.236,4.887-23.35C85.269,117.043,64.964,112.461,64.964,112.461z"/>
		<path fill="#ED2A2A" d="M101.791,123.137c-2.887-3.632-6.062-6.04-8.9-7.632c1.122-6.395,1.808-12.929,1.808-19.199
			c0-2.169-0.09-4.306-0.253-6.306H55.054c-0.161,2-0.253,4.137-0.253,6.306c0,17.665,5.42,37.086,10.824,49.95
			c1.096,2.082,6.02,1.744,9.059,1.744c0.021,0,0.044,0,0.066,0c0.021,0,0.043,0,0.064,0c3.042,0,7.964,0.339,9.06-1.743
			c0.489-1.163,0.978-2.213,1.461-3.482c3.413,0.028,14.399,0.937,14.067,10.372c0.027,0.373-0.055,1.31,0.994,1.31
			c1.144,0,1.291-0.745,1.395-0.84C106.616,143.375,107.964,130.896,101.791,123.137z"/>
		<path fill="#ED2A2A" d="M148.338,130.066c-0.625-1.365-1.273-2.781-1.936-3.986c-4.494-8.172-9.57-12.664-11.686-12.664
			c-0.021,0-0.043-0.027-0.065-0.025c-0.022-0.002-0.044-0.02-0.067-0.02c-2.109,0-7.172,4.408-11.658,12.551
			c-0.663,1.204-1.311,2.732-1.938,4.097c-2.896,6.3-5.278,13.981-6.033,23.981h39.392C153.596,144,151.223,136.358,148.338,130.066
			z"/>
		<ellipse fill="#C12121" cx="74.873" cy="99.321" rx="7.061" ry="7.078"/>
		<ellipse fill="#FFFFFF" cx="74.873" cy="99.32" rx="4.174" ry="4.199"/>
		<ellipse fill="#C12121" cx="134.774" cy="140.031" rx="10.278" ry="10.303"/>
		<ellipse fill="#FFFFFF" cx="134.774" cy="140.031" rx="6.888" ry="6.904"/>
	</g>
	<g id="hook">
		<path fill="#3C3C3C" d="M107.046,64.985c-3.862-0.021-5.317,4.861-5.958,5.502c-1.983,1.984-5.199,1.984-7.183,0
			c-1.983-1.983-1.983-5.199,0.001-7.183c0.775-0.775,4.776-1.771,6.112-2.846c0.554-0.446,0.776-3.908,0.43-5.616
			c-1.95,0-2.683,0.012-4.525,0.012c-0.206,1.114-0.015,3.231-0.401,3.319c-3.988,0.899-6.966,4.463-6.966,8.722
			c0,4.939,4.003,8.942,8.941,8.942c4.938,0,8.941-4.003,8.941-8.942C106.438,66.478,108.04,64.955,107.046,64.985z"/>
		<g id="Layer_10">
			<rect x="91" y="11" fill="#848484" width="3" height="35"/>
			<rect x="104" y="11" fill="#848484" width="3" height="35"/>
			<polygon fill="#007DDB" points="109.325,43.98 99.049,33.612 88.386,43.98 95,50.889 95,55 102,55 102,51.121 			"/>
		</g>
	</g>
	<path id="Overlay_2_" fill="#3C3C3C" d="M100.002,7.76c-51.116,0-92.56,41.539-92.56,92.78c0,51.244,41.443,92.779,92.56,92.779
		s92.556-41.535,92.556-92.779C192.558,49.298,151.118,7.76,100.002,7.76z M99.277,183.73c-45.832,0-82.992-37.242-82.992-83.191
		c0-45.944,37.16-83.19,82.992-83.19c45.831,0,82.989,37.246,82.989,83.19C182.267,146.488,145.108,183.73,99.277,183.73z"/>
</g>
<g id="Design">
	<g id="blueprints">
	</g>
	<g id="rocket">
	</g>
</g>
</svg>
