<?xml version="1.0" encoding="utf-8"?>
<!-- Generator: Adobe Illustrator 16.0.0, SVG Export Plug-In . SVG Version: 6.00 Build 0)  -->
<!DOCTYPE svg PUBLIC "-//W3C//DTD SVG 1.1//EN" "http://www.w3.org/Graphics/SVG/1.1/DTD/svg11.dtd">
<svg version="1.1" id="Layer_1" xmlns="http://www.w3.org/2000/svg" xmlns:xlink="http://www.w3.org/1999/xlink" x="0px" y="0px"
	 width="200px" height="200px" viewBox="0 0 200 200" enable-background="new 0 0 200 200" xml:space="preserve">
<g id="Layer_x0020_3">
	<path stroke="#000000" stroke-width="13" d="M151.861,145.208c1.265-10.519,0.886-12.061,8.721-10.357l1.988,0.176
		c6.026,0.274,13.907-0.969,18.538-3.121c9.966-4.625,15.878-12.344,6.048-10.316c-22.419,4.625-23.961-2.966-23.961-2.966
		c23.676-35.125,33.57-79.711,25.026-90.626c-23.296-29.769-63.623-15.692-64.299-15.327l-0.216,0.04
		c-4.428-0.918-9.384-1.468-14.955-1.558c-10.143-0.167-17.842,2.66-23.683,7.089c0,0-71.942-29.64-68.595,37.274
		c0.711,14.235,20.403,107.71,43.891,79.476c8.584-10.325,16.879-19.053,16.879-19.053c4.12,2.736,9.052,4.132,14.224,3.631
		l0.399-0.342c-0.124,1.282-0.068,2.536,0.161,4.021c-6.051,6.759-4.272,7.946-16.368,10.436c-12.237,2.522-5.048,7.014-0.354,8.188
		c5.689,1.423,18.855,3.438,27.752-9.016l-0.355,1.422c2.375,1.899,2.215,13.647,2.551,22.043c0.338,8.395,0.9,16.227,2.611,20.846
		c1.71,4.618,3.728,16.515,19.625,13.107C140.778,187.428,150.935,183.329,151.861,145.208"/>
	<path fill="#336791" d="M187.159,121.588c-22.422,4.625-23.964-2.966-23.964-2.966c23.676-35.127,33.57-79.715,25.029-90.627
		c-23.297-29.768-63.626-15.689-64.301-15.324l-0.217,0.039c-4.428-0.919-9.384-1.467-14.957-1.558
		c-10.145-0.166-17.84,2.66-23.681,7.088c0,0-71.943-29.638-68.597,37.275c0.712,14.236,20.401,107.712,43.891,79.478
		c8.584-10.325,16.878-19.053,16.878-19.053c4.12,2.736,9.054,4.132,14.222,3.631l0.403-0.342c-0.126,1.282-0.069,2.536,0.16,4.021
		c-6.051,6.759-4.271,7.946-16.368,10.436c-12.239,2.522-5.049,7.014-0.354,8.188c5.69,1.423,18.857,3.438,27.752-9.016
		l-0.354,1.422c2.371,1.899,4.035,12.35,3.757,21.826c-0.279,9.475-0.465,15.982,1.401,21.062c1.869,5.08,3.73,16.515,19.631,13.107
		c13.288-2.848,20.173-10.228,21.13-22.535c0.679-8.75,2.22-7.456,2.314-15.278l1.233-3.705c1.424-11.859,0.229-15.687,8.412-13.907
		l1.99,0.176c6.024,0.274,13.91-0.97,18.538-3.121C191.073,127.28,196.984,119.561,187.159,121.588L187.159,121.588z"/>
	<path fill="none" stroke="#FFFFFF" stroke-width="4" stroke-linecap="round" stroke-linejoin="round" d="M104.02,128.387
		c-0.618,22.07,0.154,44.294,2.314,49.696c2.16,5.4,6.785,15.907,22.687,12.5c13.284-2.849,18.12-8.36,20.217-20.527
		c1.546-8.95,4.523-33.808,4.906-38.902"/>
	<path fill="none" stroke="#FFFFFF" stroke-width="4" stroke-linecap="round" stroke-linejoin="round" d="M84.96,17.747
		c0,0-71.995-29.425-68.646,37.489c0.712,14.236,20.404,107.714,43.89,79.481c8.584-10.327,16.348-18.427,16.348-18.427"/>
	<path fill="none" stroke="#FFFFFF" stroke-width="4" stroke-linecap="round" stroke-linejoin="round" d="M123.846,12.376
		c-2.492,0.781,40.049-15.55,64.223,15.341c8.54,10.913-1.355,55.5-25.027,90.628"/>
	<path fill="none" stroke="#FFFFFF" stroke-width="4" stroke-linecap="round" stroke-linejoin="bevel" d="M163.04,118.345
		c0,0,1.542,7.593,23.964,2.965c9.824-2.027,3.911,5.693-6.053,10.319c-8.176,3.796-26.509,4.769-26.808-0.476
		C153.372,117.625,163.791,121.733,163.04,118.345c-0.68-3.054-5.341-6.05-8.422-13.523c-2.69-6.521-36.903-56.539,9.488-49.109
		c1.699-0.353-12.1-44.128-55.515-44.84c-43.407-0.712-41.983,53.38-41.983,53.38"/>
	<path fill="none" stroke="#FFFFFF" stroke-width="4" stroke-linecap="round" stroke-linejoin="round" d="M91.867,122.972
		c-6.052,6.76-4.271,7.946-16.367,10.438c-12.24,2.522-5.049,7.013-0.354,8.185c5.689,1.425,18.856,3.44,27.751-9.016
		c2.71-3.795-0.014-9.846-3.735-11.388C97.362,120.444,94.958,119.512,91.867,122.972L91.867,122.972z"/>
	<path fill="none" stroke="#FFFFFF" stroke-width="4" stroke-linecap="round" stroke-linejoin="round" d="M91.473,122.852
		c-0.61-3.974,1.305-8.702,3.357-14.236c3.086-8.302,10.204-16.605,4.511-42.939c-4.246-19.625-32.715-4.083-32.732-1.423
		s1.287,13.488-0.476,26.096c-2.301,16.453,10.469,30.367,25.173,28.942"/>
	<path fill="#FFFFFF" stroke="#FFFFFF" stroke-width="4" d="M84.699,63.854c-0.131,0.908,1.662,3.334,4,3.658
		c2.333,0.325,4.328-1.57,4.457-2.478c0.125-0.909-1.666-1.91-4.004-2.235C86.82,62.473,84.821,62.947,84.699,63.854L84.699,63.854z
		"/>
	<path fill="#FFFFFF" stroke="#FFFFFF" stroke-width="4" d="M155.756,62.001c0.127,0.909-1.664,3.334-4.001,3.657
		c-2.336,0.326-4.331-1.569-4.46-2.478c-0.123-0.909,1.668-1.909,4.004-2.235C153.635,60.621,155.629,61.094,155.756,62.001
		L155.756,62.001z"/>
	<path fill="none" stroke="#FFFFFF" stroke-width="4" stroke-linecap="round" stroke-linejoin="round" d="M164.106,55.712
		c0.386,7.129-1.536,11.983-1.776,19.573c-0.358,11.03,5.258,23.656-3.205,36.298"/>
	<path fill="none" stroke="#FFFFFF" stroke-width="4" stroke-linecap="round" stroke-linejoin="round" d="M7.802,27.542"/>
</g>
</svg>
