<?xml version="1.0" encoding="utf-8"?>
<!-- Generator: Adobe Illustrator 16.0.0, SVG Export Plug-In . SVG Version: 6.00 Build 0)  -->
<!DOCTYPE svg PUBLIC "-//W3C//DTD SVG 1.1//EN" "http://www.w3.org/Graphics/SVG/1.1/DTD/svg11.dtd">
<svg version="1.1" id="Layer_1" xmlns="http://www.w3.org/2000/svg" xmlns:xlink="http://www.w3.org/1999/xlink" x="0px" y="0px"
	 width="200px" height="200px" viewBox="0 0 200 200" enable-background="new 0 0 200 200" xml:space="preserve">
<path id="path243" fill="#201C1D" d="M65.324,90.198c-3.837,0-8.119,1.479-9.017,6.343c-0.095,0.518,0.246,0.764,0.576,0.839
	l3.932,0.472c0.364-0.018,0.611-0.413,0.682-0.786c0.336-1.674,1.714-2.464,3.25-2.464c0.831,0,1.763,0.285,2.254,1.049
	c0.563,0.851,0.524,2.007,0.524,2.988v0.576c-2.336,0.269-5.412,0.431-7.601,1.415c-2.524,1.123-4.299,3.406-4.299,6.763
	c0,4.301,2.634,6.447,6.028,6.447c2.865,0,4.449-0.674,6.657-2.988c0.734,1.092,0.969,1.586,2.307,2.727
	c0.298,0.16,0.677,0.143,0.943-0.105v0.053c0.807-0.734,2.27-2.07,3.093-2.779c0.328-0.275,0.256-0.727,0-1.1
	c-0.736-1.045-1.52-1.887-1.52-3.828v-6.447c0-2.73,0.23-5.248-1.73-7.129C69.86,90.72,67.283,90.198,65.324,90.198z
	 M118.164,90.198c-3.839,0-8.117,1.479-9.017,6.343c-0.095,0.518,0.244,0.764,0.576,0.839l3.932,0.472
	c0.364-0.018,0.613-0.413,0.682-0.786c0.338-1.674,1.714-2.464,3.25-2.464c0.832,0,1.763,0.285,2.254,1.049
	c0.562,0.851,0.472,2.007,0.472,2.988v0.576c-2.336,0.269-5.359,0.431-7.548,1.415c-2.526,1.123-4.299,3.406-4.299,6.763
	c0,4.301,2.638,6.447,6.028,6.447c2.862,0,4.446-0.674,6.657-2.988c0.73,1.092,0.969,1.586,2.307,2.727
	c0.302,0.16,0.677,0.143,0.943-0.105v0.053c0.807-0.734,2.27-2.07,3.093-2.779c0.328-0.275,0.253-0.727,0-1.1
	c-0.736-1.045-1.52-1.887-1.52-3.828v-6.447c0-2.73,0.177-5.248-1.782-7.129C122.646,90.72,120.123,90.198,118.164,90.198z
	 M88.441,90.408c-2.48,0-4.318,1.251-5.295,3.932h-0.052v-2.778c-0.026-0.388-0.341-0.714-0.734-0.734h-3.774
	c-0.427,0-0.786,0.362-0.786,0.787v21.23c0.033,0.377,0.351,0.707,0.734,0.734h4.036c0.431,0,0.784-0.359,0.786-0.787v-11.27
	c0-2.458-0.118-5.819,2.778-5.819c2.86,0,2.464,3.452,2.464,5.819v11.27c0,0.402,0.327,0.76,0.733,0.787h4.037
	c0.429,0,0.786-0.359,0.786-0.787v-11.27c0-1.207-0.049-2.962,0.367-4.037c0.414-1.074,1.432-1.782,2.411-1.782
	c1.166,0,2.058,0.406,2.358,1.834c0.188,0.849,0.105,3.091,0.105,3.985v11.27c0,0.402,0.327,0.76,0.733,0.787h4.037
	c0.429,0,0.786-0.359,0.786-0.787V99.372c0-2.279,0.229-4.867-1.049-6.657c-1.129-1.607-2.975-2.307-4.665-2.307
	c-2.372,0-4.579,1.251-5.557,3.932C92.555,91.66,90.963,90.408,88.441,90.408z M157.06,90.408c-5.832,0-9.068,5.128-9.068,11.743
	c0,6.568,3.2,11.846,9.068,11.846c5.646,0,9.226-5.156,9.226-11.637C166.285,95.66,163.042,90.408,157.06,90.408z M180.072,90.408
	c-2.786,0-4.379,1.394-5.504,4.299h-0.053v-3.25c-0.072-0.329-0.382-0.557-0.733-0.577h-3.723c-0.406,0-0.75,0.294-0.786,0.682
	v21.23c0,0.402,0.331,0.76,0.734,0.787h3.983c0.43,0,0.78-0.357,0.786-0.787v-11.428c0-1.431,0.122-2.739,0.682-4.036
	c0.452-1.028,1.327-1.678,2.307-1.678c2.781,0,2.517,3.389,2.517,5.713v11.533c0.039,0.359,0.365,0.658,0.733,0.682h4.036
	c0.396,0,0.741-0.303,0.787-0.682V99.529c0-2.055,0.005-4.909-1.049-6.604C183.661,91.091,181.874,90.408,180.072,90.408
	L180.072,90.408z M131.636,90.775c-0.409,0-0.732,0.325-0.733,0.786v3.04c0.001,0.455,0.314,0.783,0.733,0.787h6.92l-7.916,11.69
	c-0.483,0.752-0.524,1.605-0.524,2.096v3.094c0,0.445,0.485,0.93,0.944,0.682c4.511-2.463,9.917-2.246,13.996-0.053
	c0.494,0.27,0.996-0.236,0.996-0.682v-3.25c-0.04-0.436-0.21-0.852-0.734-1.154c-2.314-1.332-5.003-1.738-7.549-1.678l6.867-10.064
	c0.636-0.904,0.991-1.449,0.996-1.887v-2.621c0-0.451-0.308-0.786-0.733-0.786H131.636z M157.06,94.758
	c1.278,0,2.222,0.57,2.674,2.045c0.524,1.7,0.576,3.819,0.576,5.609c0,2.725-0.128,7.234-3.25,7.234
	c-3.158,0-3.146-5.584-3.146-8.178C153.914,98.88,154.088,94.758,157.06,94.758z M67.473,102.518v0.891
	c0,1.611,0.06,2.969-0.733,4.402c-0.641,1.166-1.647,1.889-2.778,1.889c-1.543,0-2.464-1.252-2.464-3.041
	C61.497,103.133,64.561,102.518,67.473,102.518z M120.312,102.518v0.891c0,1.611,0.06,2.969-0.733,4.402
	c-0.641,1.166-1.644,1.889-2.778,1.889c-1.545,0-2.464-1.252-2.464-3.041C114.337,103.133,117.397,102.518,120.312,102.518z"/>
<path id="path257" d="M146.471,114.26v3.039h2.045v-3.039H146.471z M87.184,114.783v21.65h1.887v-1.941
	c0.403,0.77,0.86,1.344,1.415,1.73c0.554,0.387,1.189,0.576,1.888,0.576c1.386,0,2.581-0.707,3.617-2.148
	c1.035-1.441,1.572-3.529,1.572-6.186c0-1.74-0.223-3.182-0.682-4.404c-0.459-1.219-1.069-2.125-1.835-2.725
	c-0.765-0.6-1.635-0.943-2.568-0.943c-0.668,0-1.291,0.174-1.835,0.523c-0.545,0.35-0.985,0.918-1.415,1.625v-7.758H87.184z
	 M106.579,119.867c-1.422,0-2.553,0.422-3.355,1.258s-1.205,1.914-1.205,3.252c0,0.775,0.175,1.432,0.472,2.043
	c0.296,0.611,0.724,1.105,1.258,1.469c0.537,0.363,1.607,0.842,3.197,1.363c1.102,0.354,1.758,0.654,2.045,0.891
	c0.416,0.344,0.629,0.795,0.629,1.414c0,0.719-0.249,1.318-0.733,1.783c-0.485,0.469-1.16,0.682-2.045,0.682
	s-1.615-0.25-2.149-0.787s-0.822-1.355-0.943-2.463l-2.044,0.42c0.462,3.363,2.139,5.033,5.032,5.031
	c1.543,0,2.724-0.438,3.617-1.363c0.893-0.926,1.362-2.172,1.362-3.668c0-0.811-0.143-1.512-0.419-2.098
	c-0.277-0.586-0.657-1.021-1.153-1.363c-0.498-0.338-1.608-0.791-3.303-1.363c-1.231-0.43-1.952-0.746-2.201-0.943
	c-0.418-0.332-0.63-0.783-0.63-1.363c0-0.588,0.195-1.09,0.63-1.467c0.434-0.377,1.104-0.576,1.991-0.576
	c1.563,0,2.438,0.857,2.621,2.568l1.992-0.314c-0.138-1.082-0.373-1.938-0.733-2.516c-0.36-0.58-0.895-1.07-1.573-1.416
	C108.256,119.996,107.477,119.867,106.579,119.867z M119.107,119.867c-1.639,0-3.021,0.676-4.089,2.098s-1.572,3.482-1.572,6.186
	c0,2.605,0.514,4.646,1.572,6.027s2.431,2.045,4.142,2.045c1.359,0,2.488-0.408,3.407-1.258c0.92-0.85,1.589-2.102,1.939-3.773
	l-2.097-0.367c-0.604,2.143-1.714,3.193-3.25,3.197c-0.98,0-1.779-0.416-2.464-1.311c-0.686-0.896-1.071-2.225-1.153-3.984h9.016
	v-0.734c0-2.645-0.527-4.631-1.572-6.027C121.939,120.566,120.67,119.867,119.107,119.867z M131.531,119.867
	c-0.49,0-0.918,0.166-1.311,0.525c-0.394,0.357-0.839,1.1-1.311,2.201v-2.412h-1.835v15.674h2.044v-8.178
	c0-1.139,0.108-2.236,0.367-3.25c0.147-0.58,0.426-1.037,0.786-1.361c0.36-0.326,0.771-0.473,1.206-0.473
	c0.481,0,0.96,0.193,1.468,0.576l0.682-2.463C132.915,120.137,132.216,119.867,131.531,119.867z M156.588,119.867
	c-1.618,0-2.952,0.682-3.984,2.045c-1.028,1.363-1.572,3.408-1.572,6.133c0,2.703,0.551,4.752,1.572,6.133
	c1.022,1.381,2.301,2.045,3.88,2.045c1.304,0,2.424-0.484,3.354-1.467c0.931-0.984,1.497-2.43,1.729-4.299l-1.991-0.314
	c-0.147,1.336-0.497,2.299-1.049,2.936c-0.552,0.633-1.216,0.943-1.992,0.943c-0.989,0-1.831-0.463-2.464-1.416
	c-0.632-0.953-0.943-2.48-0.943-4.613c0-2.066,0.334-3.557,0.996-4.508c0.662-0.949,1.507-1.467,2.517-1.467
	c0.675,0,1.25,0.262,1.729,0.785c0.483,0.525,0.803,1.355,0.996,2.412l1.992-0.42c-0.239-1.65-0.771-2.896-1.625-3.721
	C158.875,120.246,157.836,119.867,156.588,119.867z M168.277,119.867c-1.638,0-3.021,0.676-4.089,2.098
	c-1.067,1.422-1.572,3.482-1.572,6.186c0,2.605,0.515,4.646,1.572,6.027c1.061,1.381,2.432,2.045,4.142,2.045
	c1.356,0,2.486-0.408,3.407-1.258c0.919-0.85,1.588-2.102,1.939-3.773l-2.097-0.367c-0.603,2.143-1.664,3.193-3.197,3.197
	c-0.979,0-1.832-0.416-2.517-1.311c-0.685-0.896-1.069-2.225-1.153-3.984h9.017v-0.734c0-2.645-0.527-4.631-1.573-6.027
	C171.113,120.566,169.841,119.867,168.277,119.867z M180.387,119.867c-1.425,0-2.552,0.422-3.354,1.258
	c-0.807,0.836-1.206,1.914-1.206,3.252c0,0.775,0.123,1.432,0.419,2.043c0.295,0.611,0.722,1.105,1.259,1.469
	c0.534,0.363,1.608,0.842,3.197,1.363c1.098,0.354,1.811,0.654,2.097,0.891c0.416,0.344,0.629,0.795,0.629,1.414
	c0,0.719-0.249,1.318-0.733,1.783c-0.483,0.469-1.16,0.682-2.045,0.682c-0.888,0-1.615-0.25-2.148-0.787
	c-0.534-0.537-0.879-1.355-0.996-2.463l-2.045,0.42c0.462,3.363,2.137,5.033,5.032,5.031c1.545,0,2.777-0.438,3.67-1.363
	s1.363-2.172,1.363-3.668c0-0.811-0.143-1.512-0.42-2.098c-0.276-0.586-0.708-1.021-1.206-1.363
	c-0.496-0.338-1.556-0.791-3.25-1.363c-1.231-0.43-2.005-0.746-2.254-0.943c-0.418-0.332-0.629-0.783-0.629-1.363
	c0-0.588,0.247-1.09,0.682-1.467c0.434-0.377,1.107-0.576,1.992-0.576c1.562,0,2.438,0.857,2.621,2.568l1.991-0.314
	c-0.139-1.082-0.371-1.938-0.733-2.516c-0.36-0.58-0.895-1.07-1.572-1.416C182.067,119.996,181.283,119.867,180.387,119.867z
	 M133.628,120.182l4.561,15.674h1.939l4.561-15.674h-2.097l-2.674,9.594c-0.324,1.16-0.609,2.16-0.786,2.988
	c-0.223-1.043-0.438-2.137-0.733-3.197l-2.621-9.385H133.628z M146.471,120.182v15.674h2.045v-15.674H146.471z M79.268,120.393
	c-1.621,0-2.927,0.727-3.983,2.148c-1.059,1.422-1.625,3.482-1.625,6.186c0,2.605,0.523,4.596,1.572,5.977
	c1.048,1.381,2.447,2.096,4.142,2.096c1.345,0,2.443-0.459,3.354-1.311c0.909-0.85,1.538-2.102,1.887-3.773L82.57,131.4
	c-0.597,2.143-1.678,3.193-3.197,3.197c-0.972,0-1.786-0.416-2.464-1.311c-0.679-0.896-1.071-2.225-1.153-3.984h8.911l0.053-0.732
	c0-2.646-0.537-4.684-1.573-6.082C82.111,121.092,80.814,120.393,79.268,120.393z M56.255,120.76l3.67,15.674h2.149l2.411-12.057
	l0.419,2.672l1.939,9.385h2.098l3.722-15.674h-1.939l-2.045,9.068l-0.682,3.039l-0.629-3.039l-1.782-9.068h-2.097l-1.888,9.172
	l-0.629,3.25l-0.733-3.354l-1.888-9.068H56.255z M186.729,120.916v0.734h1.992v5.242h0.786v-5.242h1.992v-0.734H186.729z
	 M192.286,120.916v5.977h0.734v-5.086l1.729,5.086h0.733l1.73-4.98v4.98H198v-5.977h-1.101l-1.416,4.193
	c-0.142,0.42-0.243,0.723-0.314,0.943l-0.314-0.891l-1.415-4.246H192.286z M119.055,122.018c1.02,0,1.857,0.492,2.517,1.467
	c0.452,0.668,0.747,1.684,0.839,3.041h-6.763c0.063-1.377,0.452-2.438,1.101-3.25C117.397,122.463,118.141,122.018,119.055,122.018z
	 M168.226,122.018c1.016,0,1.857,0.492,2.516,1.467c0.452,0.668,0.747,1.684,0.839,3.041h-6.762c0.063-1.377,0.451-2.438,1.101-3.25
	C166.564,122.463,167.31,122.018,168.226,122.018z M79.268,122.594c1.006,0,1.815,0.492,2.464,1.467
	c0.449,0.67,0.747,1.686,0.839,3.041h-6.657c0.063-1.375,0.404-2.49,1.048-3.303C77.602,122.986,78.36,122.594,79.268,122.594z
	 M92.268,122.594c0.909,0,1.683,0.504,2.307,1.467c0.624,0.965,0.892,2.451,0.892,4.51c0,2.004-0.295,3.498-0.943,4.508
	c-0.649,1.008-1.419,1.52-2.255,1.52c-0.614,0-1.173-0.207-1.677-0.629c-0.507-0.422-0.878-1.029-1.153-1.834
	c-0.275-0.807-0.42-2.049-0.42-3.67c0-1.91,0.341-3.342,0.996-4.352C90.669,123.105,91.433,122.594,92.268,122.594z"/>
<path id="polygon287" fill="#F7A80D" d="M26.873,105.977l-7.811,3.355l7.234,3.092l8.388-3.092L26.873,105.977z M15.131,110.17
	l-0.262,15.098l11.428,5.031v-15.674L15.131,110.17z M38.615,110.17l-10.326,3.932v14.783l10.326-4.193V110.17z"/>
<path id="polygon311" fill="#F7A80D" d="M50.935,63.202l-7.863,3.354l7.286,3.093l8.388-3.093L50.935,63.202z M40.031,67.658v15.097
	l9.75,2.831l0.314-13.734L40.031,67.658z M61.838,68.496l-9.226,3.932v14.835l9.226-4.193V68.496z"/>
<path id="use3387" fill="#F7A80D" d="M14.004,84.45l-7.811,3.355l7.234,3.093l8.387-3.093L14.004,84.45z M2.262,88.643L2,103.74
	l11.428,5.033V93.099L2.262,88.643z M25.746,88.643L15.42,92.575v14.783l10.326-4.193V88.643z"/>
<path id="use3389" fill="#F7A80D" d="M39.166,83.892l-7.811,3.354l7.234,3.093l8.387-3.093L39.166,83.892z M27.424,88.085
	l-0.262,15.096l11.428,5.033V92.542L27.424,88.085z M50.908,88.085l-10.327,3.932v14.782l10.327-4.193V88.085z"/>
<path id="use3391" fill="#F7A80D" d="M75.512,63.202l-7.811,3.354l7.233,3.093l8.388-3.093L75.512,63.202z M63.77,67.395
	l-0.263,15.098l11.428,5.032V71.851L63.77,67.395z M87.254,67.395l-10.327,3.932v14.782l10.327-4.193V67.395z"/>
</svg>
