<?xml version="1.0" encoding="utf-8"?>
<!-- Generator: Adobe Illustrator 16.0.0, SVG Export Plug-In . SVG Version: 6.00 Build 0)  -->
<!DOCTYPE svg PUBLIC "-//W3C//DTD SVG 1.1//EN" "http://www.w3.org/Graphics/SVG/1.1/DTD/svg11.dtd">
<svg version="1.1" id="Layer_1" xmlns="http://www.w3.org/2000/svg" xmlns:xlink="http://www.w3.org/1999/xlink" x="0px" y="0px"
	 width="200px" height="200px" viewBox="0 0 200 200" enable-background="new 0 0 200 200" xml:space="preserve">
<path fill="#009900" d="M38.727,120.485c-1.105,0-2.197-0.434-3.012-1.246L10.516,94.037v22.189c0,2.354-1.904,4.26-4.258,4.26
	c-2.353,0-4.259-1.906-4.259-4.26v-32.47c0-1.724,1.038-3.275,2.628-3.936c1.591-0.658,3.424-0.293,4.643,0.925l25.197,25.2V83.755
	c0-2.352,1.906-4.258,4.259-4.258c2.352,0,4.258,1.906,4.258,4.258v32.47c0,1.725-1.038,3.277-2.628,3.936
	C39.83,120.378,39.277,120.485,38.727,120.485z"/>
<path id="path2996-0" fill="#009900" d="M58.445,79.538l-1.171,2.182l-9.049,16.447l-1.171,2.075l1.171,2.077l9.049,15.915
	l1.225,2.182H61h18.522h2.662l1.171-2.395l6.76-13.625l3.033-6.174h-6.866l-17.298,0.052c-2.247-0.032-4.318,2.009-4.318,4.258
	c0,2.25,2.071,4.291,4.318,4.258l10.432-0.052l-2.555,5.162H63.448l-6.651-11.71l6.708-12.136h14.269l3.326,6.826h8.569
	l-5.402-12.947l-1.171-2.395h-2.661H61H58.445L58.445,79.538z"/>
<path id="path2996-0-5" fill="#009900" d="M101.583,79.486c-2.23,0.026-4.232,2.081-4.206,4.31v11.096h8.516V83.795
	C105.923,81.53,103.847,79.458,101.583,79.486z"/>
<path fill="#009900" d="M183.503,100.04l13.245-13.197c1.668-1.661,1.668-4.357,0.01-6.024c-1.662-1.665-4.356-1.668-6.021-0.01
	l-13.267,13.22l-13.267-13.22c-1.668-1.66-4.36-1.653-6.02,0.01c-1.661,1.667-1.658,4.363,0.011,6.024l13.243,13.197l-13.207,13.162
	c-1.667,1.659-1.67,4.354-0.01,6.019c0.831,0.836,1.923,1.254,3.018,1.254c1.087,0,2.172-0.414,3.005-1.242l13.229-13.181
	l13.229,13.181c0.832,0.828,1.917,1.242,3.006,1.242c1.093,0,2.185-0.418,3.016-1.254c1.662-1.666,1.657-4.361-0.01-6.019
	L183.503,100.04z"/>
<path id="path2996-0-5-1" fill="#009900" d="M101.583,120.444c-2.23-0.029-4.232-2.082-4.206-4.311V98.309h8.516v17.823
	C105.923,118.399,103.847,120.474,101.583,120.444z"/>
<path fill="#009900" d="M147.79,120.515c-1.106,0-2.197-0.434-3.013-1.246l-25.198-25.203v22.191c0,2.352-1.905,4.258-4.259,4.258
	c-2.352,0-4.258-1.906-4.258-4.258V83.786c0-1.724,1.038-3.275,2.628-3.936c1.59-0.659,3.423-0.293,4.643,0.925l25.197,25.2V83.786
	c0-2.353,1.906-4.259,4.258-4.259c2.353,0,4.258,1.906,4.258,4.259v32.471c0,1.723-1.037,3.275-2.628,3.936
	C148.893,120.407,148.341,120.515,147.79,120.515z"/>
</svg>
