<?xml version="1.0" encoding="utf-8"?>
<!-- Generator: Adobe Illustrator 16.0.0, SVG Export Plug-In . SVG Version: 6.00 Build 0)  -->
<!DOCTYPE svg PUBLIC "-//W3C//DTD SVG 1.1//EN" "http://www.w3.org/Graphics/SVG/1.1/DTD/svg11.dtd">
<svg version="1.1" id="Layer_1" xmlns="http://www.w3.org/2000/svg" xmlns:xlink="http://www.w3.org/1999/xlink" x="0px" y="0px"
	 width="200px" height="200px" viewBox="0 0 200 200" enable-background="new 0 0 200 200" xml:space="preserve">
<g>
	<path fill="#362701" d="M76.321,154.104c-3.468,0-6.05,1.702-6.05,5.801c0,3.087,1.702,5.23,5.862,5.23
		c3.527,0,5.923-2.078,5.923-5.358C82.057,156.061,79.913,154.104,76.321,154.104z M69.389,183.037
		c-0.821,1.008-1.639,2.077-1.639,3.339c0,2.521,3.212,3.278,7.626,3.278c3.656,0,8.636-0.257,8.636-3.655
		c0-2.02-2.396-2.145-5.424-2.334L69.389,183.037z M88.044,154.295c1.133,1.45,2.333,3.467,2.333,6.367
		c0,6.996-5.484,11.092-13.424,11.092c-2.02,0-3.847-0.253-4.979-0.567l-2.081,3.341l6.176,0.377
		c10.905,0.695,17.331,1.011,17.331,9.391c0,7.25-6.364,11.344-17.331,11.344c-11.407,0-15.756-2.899-15.756-7.878
		c0-2.837,1.261-4.347,3.467-6.43c-2.08-0.879-2.773-2.454-2.773-4.156c0-1.388,0.693-2.647,1.829-3.847
		c1.135-1.195,2.394-2.396,3.907-3.781c-3.089-1.512-5.421-4.789-5.421-9.454c0-7.247,4.789-12.224,14.432-12.224
		c2.711,0,4.351,0.248,5.8,0.629h12.291v5.356L88.044,154.295"/>
	<path fill="#362701" d="M104.932,142.843c-3.594,0-5.673-2.083-5.673-5.676c0-3.589,2.079-5.544,5.673-5.544
		c3.656,0,5.735,1.955,5.735,5.544C110.667,140.76,108.588,142.843,104.932,142.843z M96.8,180.717v-4.976l3.215-0.438
		c0.883-0.129,1.009-0.316,1.009-1.265v-18.529c0-0.691-0.188-1.135-0.82-1.322l-3.403-1.198l0.692-5.104h13.048v26.153
		c0,1.011,0.062,1.136,1.009,1.265l3.215,0.438v4.976H96.8"/>
	<path fill="#362701" d="M139.688,178.275c-2.712,1.321-6.683,2.52-10.275,2.52c-7.5,0-10.335-3.022-10.335-10.148v-16.511
		c0-0.377,0-0.631-0.506-0.631h-4.411v-5.608c5.548-0.633,7.752-3.405,8.444-10.275h5.989v8.953c0,0.438,0,0.629,0.505,0.629h8.886
		v6.302h-9.391v15.062c0,3.719,0.883,5.167,4.285,5.167c1.767,0,3.593-0.439,5.105-1.008L139.688,178.275"/>
</g>
<path fill="#F03C2E" d="M157.913,61.686l-52.554-52.55c-3.024-3.027-7.934-3.027-10.962,0L83.485,20.049l13.843,13.843
	c3.218-1.086,6.906-0.358,9.47,2.207c2.578,2.581,3.301,6.3,2.188,9.529l13.342,13.341c3.228-1.112,6.952-0.394,9.529,2.188
	c3.604,3.602,3.604,9.438,0,13.043s-9.441,3.605-13.046,0c-2.71-2.711-3.381-6.692-2.008-10.031L104.36,51.727l-0.001,32.742
	c0.878,0.436,1.707,1.015,2.438,1.744c3.604,3.603,3.604,9.438,0,13.048c-3.603,3.601-9.442,3.601-13.042,0
	c-3.604-3.609-3.604-9.445,0-13.048c0.891-0.887,1.92-1.56,3.02-2.012V51.155c-1.1-0.45-2.128-1.118-3.02-2.013
	c-2.729-2.727-3.387-6.732-1.987-10.083L78.123,25.411L42.089,61.443c-3.028,3.029-3.028,7.938,0,10.964l52.554,52.55
	c3.025,3.026,7.933,3.026,10.962,0l52.309-52.306C160.939,69.622,160.939,64.713,157.913,61.686"/>
</svg>
