<?xml version="1.0" encoding="utf-8"?>
<!-- Generator: Adobe Illustrator 16.0.0, SVG Export Plug-In . SVG Version: 6.00 Build 0)  -->
<!DOCTYPE svg PUBLIC "-//W3C//DTD SVG 1.1//EN" "http://www.w3.org/Graphics/SVG/1.1/DTD/svg11.dtd">
<svg version="1.1" id="Layer_1" xmlns="http://www.w3.org/2000/svg" xmlns:xlink="http://www.w3.org/1999/xlink" x="0px" y="0px"
	 width="200px" height="200px" viewBox="0 0 200 200" enable-background="new 0 0 200 200" xml:space="preserve">
<path d="M150.489,151.574c0.386-0.999,0.856-3.069,2.298-4.662c1.441-1.594,2.446-2.128,3.006-1.982
	c1.105,0.287,1.896,0.705,2.84,1.355c1.232,0.847,2.585,1.513,3.987,2.024c1.381,0.504,3.205,0.908,4.309,1.941
	c0.772,0.721,1.311,1.794,1.213,2.87c-0.321,1.763-1.341,2.725-2.649,3.828c-0.762,0.642-1.231,1.639-2.211,2.001
	c-0.789,0.292-1.747,0.308-2.496-0.107c-0.895-0.496-1.809-0.968-2.671-1.521c-0.805-0.517-1.608-1.116-2.552-1.348
	c-0.819-0.202-1.386-0.229-2.211-0.37c-0.862-0.148-2.115-0.68-2.699-1.103C150.07,154.078,150.102,152.573,150.489,151.574z"/>
<path d="M155.15,146.57c-1.008,0.597-2.038,1.385-2.399,2.553c-0.353,1.175-1.124,2.213-1.244,3.457
	c0.028,0.5,0.13,1.138,0.651,1.363c1.332,0.673,2.866,0.65,4.255,1.156c0.729,0.23,1.292,0.787,1.995,1.073
	c0.683,0.28,1.34,0.614,2.019,0.902c1.192,0.538,2.652,0.249,3.662-0.541c0.571-0.419,0.239-1.18,0.127-1.737
	c-0.163-0.85-0.602-1.628-0.704-2.485c0.126-0.555,0.765-0.617,1.123-0.239c0.759,0.88,0.905,2.094,1.143,3.195
	c0.588-0.29,1.043-0.834,1.192-1.475c0.095-1.206-0.473-2.463-1.558-3.055c-0.998-0.513-1.951-1.139-3.033-1.462
	c-1-0.322-1.957-0.759-2.93-1.155c-1.172-0.488-2.232-1.2-3.385-1.724C155.758,146.199,155.424,146.422,155.15,146.57z"/>
<path fill="#FFFFFF" d="M157.641,147.525c1.346,0.871,2.902,1.516,4.426,2.007c0.973,0.29,1.831,0.854,2.729,1.315
	c0.978,0.533,1.487,1.663,1.402,2.749c-0.135,0.576-0.545,1.066-1.073,1.327c-0.215-0.991-0.347-2.085-1.028-2.875
	c-0.323-0.342-0.896-0.283-1.012,0.215c0.093,0.771,0.487,1.471,0.635,2.236c0.101,0.501,0.4,1.187-0.114,1.563
	c-2.45,1.919-5.045-0.754-7.375-1.459c-1.109-0.334-2.292-0.407-3.363-0.872c-0.47-0.203-0.56-0.778-0.586-1.229
	c0.108-1.119,0.802-2.054,1.12-3.11c0.256-0.849,0.98-1.697,1.712-2.173c0.45-0.293,0.866-0.354,1.273-0.278
	C156.807,147.022,157.217,147.251,157.641,147.525z"/>
<g>
	<circle cx="43.664" cy="60.332" r="10.947"/>
	<circle fill="#D0B698" cx="44.674" cy="60.575" r="9.672"/>
	<circle cx="42.672" cy="60.575" r="3.497"/>
</g>
<g>
	<circle cx="127.164" cy="23.058" r="10.584"/>
	<circle fill="#D0B698" cx="126.62" cy="22.952" r="9.071"/>
	<circle cx="126.09" cy="22.74" r="4.139"/>
</g>
<g>
	<path d="M155.611,72.546c1.601-0.124,3.213-0.192,4.818-0.157c4.123,0.09,10.028,5.156,6.791,9.523
		c-0.872,1.177-2.35,2.008-3.816,2.059c-1.719,0.058-2.919-1.101-4.286-1.946c-0.889-0.537-1.956-0.223-2.908-0.103
		c-0.812,0.17-1.64,0.094-2.456,0.159c-0.859,0.52-1.347,1.49-2.207,2.016c-0.385,0.08-0.867-0.146-1.16,0.2
		c-0.457,0.426-0.867,1.015-1.573,0.964c0.351-0.602,0.839-1.121,1.108-1.767c0.196-0.432,0.323-0.903,0.605-1.289
		c0.396-0.403,0.986-0.493,1.506-0.644c-0.119,0.364-0.251,0.729-0.374,1.093c1.683-1.733,2.589-3.136,2.89-5.549
		c0.126-1.009,0.355-2.001,0.415-3.018C154.996,73.541,154.885,72.664,155.611,72.546 M156.515,74.406
		c-0.117,0.674-0.27,1.299-0.265,1.986c0.006,0.739,0.014,1.387-0.247,2.087c-0.259,0.702-0.66,1.42-0.19,2.136
		c1.43-0.121,2.914-0.382,4.317,0.067c1.17,0.329,1.866,1.632,3.183,1.667c2.744,0.072,1.212-3.192,0.643-4.441
		c0.715,0.047,1.114,0.597,1.438,1.168c0.098,0.174,0.271,0.779,0.431,0.874c0.997,0.583,0.201-1.896,0.116-2.177
		c-0.244-0.817-0.496-1.669-1.198-2.212c-1.052-0.818-2.425-1.097-3.718-1.252C160.586,74.257,156.594,73.958,156.515,74.406z"/>
	<path fill="#FFFFFF" d="M156.515,74.406c-0.117,0.674-0.27,1.299-0.265,1.986c0.006,0.739,0.014,1.387-0.247,2.087
		c-0.259,0.702-0.66,1.42-0.19,2.136c1.43-0.121,2.914-0.382,4.317,0.067c1.17,0.329,1.866,1.632,3.183,1.667
		c2.744,0.072,1.212-3.192,0.643-4.441c0.715,0.047,1.114,0.597,1.438,1.168c0.098,0.174,0.271,0.779,0.431,0.874
		c0.997,0.583,0.201-1.896,0.116-2.177c-0.244-0.817-0.496-1.669-1.198-2.212c-1.052-0.818-2.425-1.097-3.718-1.252
		C160.586,74.257,156.594,73.958,156.515,74.406z"/>
</g>
<path d="M99.728,10.328c7.101-1.502,13.941,1.268,19.402,5.548c5.464,4.283,11.017,9.139,15.649,14.304
	c3.146,3.508,5.976,7.646,8.06,11.868c2.401,4.87,3.9,10.107,6.053,15.08c2.401,5.551,6.128,10.551,8.182,16.25
	c1.933,5.364,2.586,11.051,3.343,16.667c0.655,4.866,1.824,9.655,2.325,14.542c0.713,6.929,0.316,13.978-0.014,20.917
	c-0.821,4.097-1.388,8.237-2.036,12.363c-2.309,14.668-9.919,25.076-23.283,31.739c-13.518,6.739-29.328,13.63-44.614,10.227
	c-2.672-0.596-5.238-0.407-7.589-1.943c-1.787-1.167-3.402-2.634-5.136-3.881c-3.327-2.396-5.768-5.833-7.425-9.531
	c-1.008-2.247-2.032-4.535-2.602-6.937c-0.528-2.234,0.051-4.876,0.148-7.139c0.326-7.651,1.111-15.728-0.186-23.314
	c-0.981-5.736-3.096-11.234-5.399-16.56c-2.181-5.039-6.058-8.984-9.091-13.497c-2.462-3.663-3.98-7.815-5.751-11.824
	c-1.686-3.816-4.267-7.386-5.366-11.426c-1.504-5.526-1.439-11.893-1.421-17.604c0.018-5.16,0.435-10.986,3.577-15.319
	c4.667-6.431,11.41-11.027,17.991-15.339C72.758,20.14,80.54,14.555,90.25,12.202c1.468-0.556,3.027-0.786,4.52-1.256
	C96.371,10.421,98.09,10.646,99.728,10.328"/>
<path fill="#D0B698" d="M100.348,12.56c6.855-1.463,13.461,1.233,18.734,5.401c5.275,4.172,10.637,8.899,15.108,13.929
	c3.037,3.417,5.772,7.447,7.782,11.557c2.321,4.742,3.768,9.841,5.845,14.685c2.32,5.406,5.917,10.275,7.9,15.823
	c1.867,5.224,2.498,10.762,3.228,16.231c0.632,4.737,1.761,9.4,2.246,14.159c0.688,6.747,0.305,13.609-0.013,20.367
	c-0.795,3.99-1.341,8.022-1.968,12.039c-2.229,14.283-9.577,24.418-22.481,30.905c-13.052,6.563-28.317,13.273-43.077,9.958
	c-2.578-0.578-5.058-0.395-7.328-1.892c-1.725-1.138-3.283-2.564-4.957-3.779c-3.214-2.332-5.57-5.68-7.17-9.28
	c-0.974-2.188-1.962-4.416-2.513-6.755c-0.509-2.176,0.05-4.747,0.144-6.951c0.316-7.45,1.073-15.315-0.18-22.702
	c-0.945-5.586-2.988-10.939-5.212-16.124c-2.105-4.908-5.85-8.75-8.778-13.144c-2.379-3.566-3.843-7.608-5.553-11.512
	c-1.628-3.717-4.12-7.192-5.183-11.126c-1.45-5.381-1.389-11.582-1.37-17.141c0.016-5.024,0.419-10.697,3.454-14.917
	c4.505-6.262,11.017-10.738,17.371-14.938c7.929-5.238,15.442-10.678,24.819-12.968c1.416-0.542,2.922-0.767,4.363-1.224
	C97.107,12.651,98.766,12.869,100.348,12.56"/>
<circle cx="67.156" cy="47.798" r="15.884"/>
<circle fill="#FFFFFF" cx="67.599" cy="47.78" r="14.296"/>
<circle cx="74.954" cy="44.822" r="5.074"/>
<circle fill="#FFFFFF" cx="77.492" cy="44.822" r="1.421"/>
<circle cx="101.546" cy="30.092" r="15.884"/>
<ellipse fill="#FFFFFF" cx="101.831" cy="29.933" rx="14.424" ry="14.686"/>
<circle cx="110.589" cy="27.667" r="5.074"/>
<circle fill="#FFFFFF" cx="113.127" cy="27.667" r="1.421"/>
<path fill="#FFFFFF" d="M101.175,60.148c-0.292,0.78,1.118,2.144,1.487,2.777c0.693,1.19,1.36,2.604,1.5,3.99
	c0.109,1.075-0.558,2.026-1.41,2.617c-0.996,0.692-2.18,0.667-3.228,1.199c-1.513,0.769-3.002,1.689-4.688,2.028
	c-2.148,0.432-3.296-1.329-3.822-3.218c-0.574-1.483-0.782-3.075-1.372-4.552c-0.885,0.353-0.216-2.028,4.44-4.096
	C97.49,59.378,101.377,59.609,101.175,60.148z"/>
<path d="M89.649,47.322c1.399-0.758,3.225-1.014,4.617-0.097c0.79,0.396,1.228,1.185,1.62,1.936c0.834,0.15,1.652,0.4,2.507,0.393
	c1.361-0.011,2.478-0.347,3.761,0.269c1.406,0.674,2.586,1.97,3.232,3.367c0.814,1.759,0.531,3.079-0.587,4.631
	c-0.429,0.579-1.051,0.942-1.678,1.27c-0.487,0.255-1.323,0.495-1.536,1.062c-0.308,0.821,1.177,2.257,1.564,2.923
	c0.731,1.253,1.433,2.74,1.58,4.199c0.114,1.132-0.588,2.134-1.484,2.756c-1.048,0.728-2.293,0.702-3.397,1.262
	c-1.591,0.809-3.159,1.777-4.936,2.134c-2.261,0.454-3.468-1.398-4.023-3.387c-0.604-1.56-0.822-3.237-1.444-4.792
	c-0.931,0.372-1.873,0.717-2.792,1.117c-1.149,0.55-2.41-0.091-3.444-0.612c-1.986-1.003-2.491-3.645-2.309-5.644
	c0.182-1.965,1.599-2.948,2.707-4.423c-0.221-0.933-0.572-1.897-0.407-2.864c0.344-0.981,0.648-2.09,1.538-2.728
	c0.607-0.453,1.17-0.963,1.785-1.404C87.463,48.019,88.643,47.865,89.649,47.322 M90.314,50.174 M98.159,50.633
	c-1.486,0.167-2.585,1.044-3.632,2.042c-1.197,1.145-2.378,1.996-3.835,2.792c-1.005,0.548-2.182,0.439-3.282,0.566
	c-1.004,0.105-2.135-0.013-2.97,0.667c-1.167,0.976-2.204,2.319-2.239,3.904c-0.204,1.733,0.977,4.298,2.801,4.646
	c3.359,0.639,4.977-3.347,7.437-4.67c1.429-0.876,3.702-1.333,5.352-1.51c1.083-0.117,2.233-0.135,3.286-0.435
	c0.97-0.275,1.643-0.98,2.412-1.59c0.9-0.669,0.892-1.927,0.847-2.939c-0.173-1.29-1.407-1.997-2.456-2.538
	C100.739,50.971,99.467,50.486,98.159,50.633 M95.771,60.829c-0.009,1.541,0.78,2.884,1.506,4.189c0.718,1.291,1.08,2.8,1.89,4.027
	c0.921,0.799,2.246,0.475,3.328,0.281c0.934-0.122,1.383-1.208,1.066-2.032c-0.547-1.836-1.3-3.66-2.537-5.149
	c-0.457-0.558-0.892-1.283-1.532-1.649C98.416,59.88,96.883,60.637,95.771,60.829 M93.481,61.608
	c-0.663,0.135-1.387,0.633-1.789,0.948c-1.202,0.947-1.088,1.963-0.809,3.342c0.27,1.327,0.666,2.63,1.187,3.881
	c0.324,0.775,0.604,1.69,1.356,2.167c0.902,0.573,2.226,0.427,3.17,0.052c0.508-0.203,1.104-0.536,1.37-1.04
	c0.342-0.644-0.031-1.065-0.136-1.701c-0.411-2.489-2.113-4.714-3.075-7.016C94.496,61.622,94.007,61.5,93.481,61.608z"/>
<path d="M123.191,92.289c1.6-0.124,3.213-0.192,4.817-0.157c4.122,0.09,10.028,5.156,6.792,9.523
	c-0.873,1.177-2.35,2.009-3.816,2.059c-1.719,0.059-2.92-1.102-4.288-1.946c-0.887-0.537-1.954-0.223-2.907-0.103
	c-0.811,0.17-1.639,0.094-2.456,0.158c-0.858,0.52-1.347,1.489-2.206,2.017c-0.386,0.081-0.867-0.146-1.161,0.199
	c-0.458,0.427-0.867,1.016-1.573,0.965c0.352-0.602,0.839-1.121,1.108-1.768c0.196-0.432,0.323-0.902,0.605-1.287
	c0.396-0.404,0.987-0.493,1.505-0.646c-0.118,0.364-0.25,0.729-0.373,1.093c1.683-1.732,2.59-3.135,2.89-5.549
	c0.126-1.008,0.355-2.001,0.415-3.018C122.575,93.284,122.463,92.407,123.191,92.289 M124.094,94.148
	c-0.117,0.674-0.27,1.299-0.265,1.987c0.005,0.739,0.014,1.386-0.247,2.087c-0.26,0.701-0.66,1.419-0.191,2.136
	c1.432-0.121,2.915-0.382,4.32,0.067c1.168,0.328,1.865,1.633,3.181,1.667c2.743,0.072,1.212-3.192,0.644-4.441
	c0.713,0.047,1.113,0.598,1.437,1.168c0.099,0.174,0.27,0.779,0.431,0.874c0.997,0.584,0.202-1.896,0.117-2.177
	c-0.244-0.817-1.901-2.758-1.199-2.214c1.695,1.317-2.342-1.086-3.717-1.25C128.165,94,124.172,93.701,124.094,94.148z"/>
<path fill="#FFFFFF" d="M124.135,94.148c-0.117,0.674-0.27,1.299-0.265,1.987c0.006,0.739,0.015,1.386-0.245,2.087
	c-0.261,0.701-0.662,1.419-0.192,2.136c1.432-0.121,2.915-0.382,4.319,0.067c1.169,0.328,1.866,1.633,3.182,1.667
	c2.743,0.072,1.211-3.192,0.643-4.441c0.714,0.047,1.113,0.598,1.437,1.168c0.099,0.174,0.271,0.779,0.432,0.874
	c0.997,0.584,0.201-1.896,0.116-2.177c-0.244-0.817-0.496-1.669-1.199-2.214c-1.052-0.816-2.424-1.095-3.717-1.25
	C128.207,94,124.214,93.701,124.135,94.148z"/>
<path d="M97.209,179.707c-0.193,0.694-0.841,1.892-1.424,2.545c-0.556,0.624-0.982,0.999-1.497,1.667
	c-0.593,0.77-0.848,1.739-1.153,2.646c-0.33,0.971-0.751,1.908-1.143,2.854c-0.327,0.79-1.085,1.377-1.885,1.64
	c-0.992,0.327-1.979-0.159-2.975-0.187c-1.713-0.047-3.109-0.164-4.459-1.34c-0.746-0.781-0.994-1.957-0.841-3.002
	c0.219-1.495,1.394-2.948,2.159-4.203c0.778-1.275,1.42-2.64,1.855-4.069c0.332-1.097,0.691-1.917,1.375-2.829
	c0.348-0.463,1.466-0.671,3.586-0.323c2.121,0.347,3.778,1.672,4.704,2.212C96.438,177.856,97.402,179.014,97.209,179.707z"/>
<path d="M87.926,176.745c-0.574,1.128-0.96,2.346-1.57,3.458c-0.515,0.915-0.991,1.854-1.572,2.729c-0.646,0.927-1,2.011-1.46,3.033
	c-0.479,1.14-0.141,2.477,0.687,3.36c0.516,0.406,1.211,0.55,1.852,0.409c-0.501-1.01-1.144-2.051-1.099-3.211
	c0.044-0.52,0.583-0.867,1.026-0.515c0.455,0.735,0.597,1.617,0.999,2.383c0.261,0.508,0.475,1.309,1.183,1.281
	c1.282-0.012,2.604-0.696,3.201-1.86c0.35-0.648,0.656-1.319,1.015-1.963c0.372-0.664,0.466-1.448,0.892-2.085
	c0.77-1.261,1.984-2.199,2.606-3.556c0.268-0.503-0.052-1.063-0.341-1.473c-0.869-0.896-2.12-1.229-3.127-1.926
	c-1.011-0.689-2.309-0.663-3.469-0.501C88.441,176.365,88.042,176.398,87.926,176.745z"/>
<path fill="#FFFFFF" d="M88.076,177.368c0.271-0.313,0.635-0.524,1.17-0.577c0.868-0.083,1.965,0.128,2.693,0.633
	c0.907,0.627,2.031,0.927,2.813,1.734c0.262,0.367,0.548,0.872,0.309,1.324c-0.549,1.032-1.428,1.826-2.086,2.779
	c-1.384,2.004-1.745,5.712-4.856,5.738c-0.638,0.024-0.831-0.696-1.065-1.152c-0.362-0.689-0.489-1.483-0.898-2.145
	c-0.399-0.317-0.884-0.005-0.925,0.463c-0.041,1.045,0.539,1.981,0.988,2.89c-0.575,0.125-1.201-0.003-1.666-0.369
	c-0.744-0.795-1.05-1.998-0.617-3.023c0.414-0.92,0.733-1.896,1.313-2.73c0.884-1.333,1.701-2.807,2.21-4.326
	C87.618,178.128,87.797,177.693,88.076,177.368z"/>
<g>
	<path d="M75.082,168.27c-1.192,0.241-0.789-0.433-1.438-0.37c-0.646,0.064-1.733,0.427-2.58,0.112
		c-0.67-0.248-1.316-0.671-1.685-1.297c-0.37-0.865-0.226-1.887,0.271-2.674c0.355-0.781,1.022-1.348,1.475-2.062
		C75.43,161.427,76.275,168.028,75.082,168.27z"/>
	<path d="M71.799,163.438c-0.696,0.364-1.145,1.044-1.537,1.699c-0.249,0.378-0.268,1.004,0.176,1.247
		c0.715,0.564,1.68,0.642,2.555,0.545c0.335-0.138,0.723-0.37,0.824-0.737c0.07-0.902-0.633-1.566-1.09-2.26
		C72.506,163.647,72.222,163.109,71.799,163.438"/>
	<path fill="#FFFFFF" d="M72.113,163.438c0.422-0.329,0.706,0.209,0.926,0.494c0.459,0.693,1.161,1.357,1.09,2.26
		c-0.1,0.367-0.487,0.6-0.824,0.737c-0.874,0.097-1.838,0.02-2.555-0.545c-0.442-0.243-0.423-0.869-0.176-1.247
		C70.968,164.482,71.415,163.803,72.113,163.438z"/>
</g>
</svg>
