<?xml version="1.0" encoding="utf-8"?>
<!-- Generator: Adobe Illustrator 16.0.0, SVG Export Plug-In . SVG Version: 6.00 Build 0)  -->
<!DOCTYPE svg PUBLIC "-//W3C//DTD SVG 1.1//EN" "http://www.w3.org/Graphics/SVG/1.1/DTD/svg11.dtd">
<svg version="1.1" id="Layer_1" xmlns="http://www.w3.org/2000/svg" xmlns:xlink="http://www.w3.org/1999/xlink" x="0px" y="0px"
	 width="200px" height="200px" viewBox="0 0 200 200" enable-background="new 0 0 200 200" xml:space="preserve">
<path fill="#636466" d="M36.702,154.271c0,2.739-2.25,5.185-5.187,5.185c-2.249,0-4.206,0.587-5.868,1.858
	c-1.859,1.178-3.328,2.838-4.499,4.695c-2.35,3.132-3.521,6.849-4.012,8.217v18.587c0,2.838-2.445,5.187-5.38,5.187
	c-2.836,0-5.184-2.349-5.184-5.187v-38.542c0-2.837,2.348-5.087,5.184-5.087c2.935,0,5.38,2.25,5.38,5.087v0.685
	c0.588-0.685,1.37-1.467,2.055-1.956c3.229-2.151,7.436-3.914,12.326-3.815C34.45,149.185,36.702,151.434,36.702,154.271
	L36.702,154.271z"/>
<path fill="#636466" d="M33.833,173.543c0.099-13.304,10.467-24.457,23.867-24.457c12.719,0,22.794,9.489,23.576,22.693v0.488
	c0,0.197,0,0.687-0.097,0.882c-0.294,2.348-2.349,3.914-5.088,3.914H44.984c0.488,2.25,1.563,4.794,3.326,6.456
	c2.055,2.349,5.967,4.107,9.39,4.401c3.522,0.292,7.729-0.588,10.173-2.447c2.055-2.151,6.065-1.857,7.338-0.294
	c1.272,1.37,2.248,4.307,0,6.359c-4.795,4.397-10.565,6.454-17.513,6.454C44.3,197.899,33.93,186.847,33.833,173.543L33.833,173.543
	z M44.495,168.75h27.684c-0.979-3.914-5.967-9.684-14.479-10.37C49.387,158.772,45.278,164.739,44.495,168.75z"/>
<path fill="#636466" d="M131.11,192.718c0,2.838-2.349,5.282-5.283,5.282c-2.64,0-4.692-1.858-5.185-4.206
	c-3.715,2.541-8.411,4.206-13.304,4.206c-13.203,0-23.769-11.15-23.769-24.358c0-13.402,10.565-24.554,23.769-24.554
	c4.794,0,9.488,1.562,13.107,4.107v-18.39c0-2.837,2.35-5.284,5.379-5.284c2.937,0,5.283,2.446,5.283,5.284v38.737v0.099v19.076
	H131.11z M107.339,159.753c-3.52,0-6.75,1.466-9.192,4.009c-2.447,2.444-3.915,5.967-3.915,9.88c0,3.718,1.468,7.239,3.915,9.685
	c2.442,2.545,5.673,4.011,9.192,4.011c3.621,0,6.752-1.466,9.197-4.011c2.443-2.443,3.91-5.967,3.91-9.685
	c0-3.913-1.465-7.434-3.91-9.88C114.091,161.216,110.96,159.753,107.339,159.753z"/>
<path fill="#636466" d="M149.726,136.86c0,2.935-2.25,5.38-5.284,5.38c-2.935,0-5.28-2.445-5.28-5.38v-2.057
	c0-2.934,2.346-5.282,5.28-5.282c3.034,0,5.284,2.351,5.284,5.282V136.86L149.726,136.86z M149.726,154.564v38.149
	c0,2.935-2.25,5.283-5.284,5.283c-2.935,0-5.28-2.349-5.28-5.283v-38.149c0-3.129,2.346-5.38,5.28-5.38
	C147.476,149.185,149.726,151.438,149.726,154.564z"/>
<path fill="#636466" d="M156.448,184.005c1.761-2.349,5.184-2.639,7.336-0.781c2.541,2.153,6.946,4.4,10.762,4.305
	c2.639,0,5.085-0.88,6.649-1.859c1.37-1.174,1.762-2.149,1.762-2.934c0-0.489-0.1-0.685-0.295-0.979
	c-0.099-0.294-0.488-0.685-1.271-1.174c-1.372-0.978-4.307-2.055-7.827-2.738h-0.098c-3.035-0.588-5.969-1.369-8.511-2.546
	c-2.641-1.27-4.99-3.031-6.748-5.671c-1.078-1.761-1.663-3.912-1.663-6.162c0-4.502,2.543-8.316,5.771-10.763
	c3.424-2.348,7.533-3.62,12.032-3.62c6.75,0,11.543,3.23,14.675,5.382c2.349,1.564,3.033,4.793,1.563,7.238
	c-1.563,2.346-4.794,3.032-7.236,1.37c-3.131-2.055-5.87-3.62-9.002-3.62c-2.444,0-4.596,0.782-5.87,1.761
	c-1.271,0.879-1.563,1.761-1.563,2.25c0,0.391,0,0.489,0.195,0.781c0.099,0.195,0.392,0.587,1.076,0.979
	c1.273,0.879,3.816,1.761,7.145,2.347l0.097,0.101h0.098c3.229,0.585,6.261,1.465,9.097,2.836c2.643,1.173,5.284,3.03,6.949,5.771
	c1.173,1.956,1.857,4.206,1.857,6.455c0,4.793-2.643,8.806-6.164,11.348c-3.522,2.444-7.925,3.912-12.717,3.912
	c-7.629-0.097-13.499-3.616-17.413-6.748C154.979,189.482,154.688,186.156,156.448,184.005L156.448,184.005z"/>
<path fill="#A41E11" d="M159.338,87.104c-6.871,3.581-42.471,18.218-50.049,22.168c-7.579,3.954-11.789,3.914-17.776,1.055
	c-5.986-2.862-43.869-18.166-50.694-21.428c-3.41-1.63-5.204-3.007-5.204-4.306V71.578c0,0,49.318-10.738,57.28-13.594
	c7.961-2.855,10.725-2.959,17.501-0.477c6.775,2.482,47.291,9.792,53.987,12.244c0,0-0.002,11.625-0.002,12.831
	C164.383,83.87,162.837,85.282,159.338,87.104L159.338,87.104z"/>
<path fill="#D82C20" d="M159.338,74.084c-6.871,3.58-42.471,18.218-50.049,22.169c-7.579,3.953-11.789,3.915-17.776,1.051
	c-5.988-2.859-43.869-18.166-50.694-21.426c-6.824-3.261-6.967-5.506-0.265-8.13c6.704-2.626,44.379-17.407,52.343-20.264
	c7.961-2.856,10.725-2.959,17.499-0.477c6.777,2.482,42.162,16.567,48.859,19.02C165.953,68.481,166.211,70.501,159.338,74.084
	L159.338,74.084z"/>
<path fill="#A41E11" d="M159.338,65.879c-6.871,3.582-42.471,18.218-50.049,22.17C101.71,92,97.5,91.961,91.513,89.1
	c-5.988-2.861-43.869-18.165-50.694-21.426c-3.41-1.63-5.204-3.004-5.204-4.304V50.353c0,0,49.318-10.737,57.28-13.594
	c7.961-2.855,10.725-2.959,17.501-0.478c6.775,2.483,47.291,9.791,53.987,12.245c0,0-0.002,11.625-0.002,12.833
	C164.383,62.644,162.837,64.056,159.338,65.879z"/>
<path fill="#D82C20" d="M159.338,52.858c-6.871,3.582-42.471,18.219-50.049,22.171c-7.579,3.95-11.789,3.912-17.776,1.05
	c-5.988-2.86-43.869-18.166-50.694-21.426c-6.824-3.262-6.967-5.507-0.265-8.133c6.704-2.624,44.379-17.406,52.343-20.262
	c7.961-2.857,10.725-2.96,17.499-0.478c6.777,2.481,42.162,16.565,48.859,19.02C165.953,47.254,166.211,49.276,159.338,52.858
	L159.338,52.858z"/>
<path fill="#A41E11" d="M159.338,43.866c-6.871,3.582-42.471,18.218-50.049,22.171c-7.579,3.952-11.789,3.912-17.776,1.051
	c-5.988-2.862-43.869-18.167-50.694-21.427c-3.41-1.63-5.204-3.005-5.204-4.305V28.339c0,0,49.318-10.736,57.28-13.592
	c7.961-2.856,10.725-2.96,17.501-0.478c6.775,2.483,47.291,9.791,53.987,12.244c0,0-0.002,11.625-0.002,12.833
	C164.383,40.631,162.837,42.043,159.338,43.866L159.338,43.866z"/>
<path fill="#D82C20" d="M159.338,30.846c-6.871,3.582-42.471,18.22-50.049,22.171c-7.579,3.95-11.789,3.912-17.776,1.05
	c-5.986-2.861-43.869-18.166-50.694-21.426c-6.824-3.261-6.967-5.507-0.265-8.132c6.704-2.625,44.379-17.406,52.343-20.263
	c7.961-2.857,10.725-2.958,17.499-0.476c6.777,2.481,42.162,16.565,48.859,19.019C165.953,25.242,166.211,27.265,159.338,30.846
	L159.338,30.846z"/>
<polygon fill="#FFFFFF" points="116.873,18.311 105.715,19.469 103.217,25.479 99.183,18.772 86.3,17.615 95.913,14.147 
	93.029,8.826 102.029,12.345 110.515,9.567 108.221,15.071 "/>
<polygon fill="#FFFFFF" points="102.551,47.469 81.728,38.832 111.566,34.252 "/>
<ellipse fill="#FFFFFF" cx="73.682" cy="27.833" rx="15.948" ry="6.182"/>
<polygon fill="#7A0C00" points="130.061,19.952 147.721,26.933 130.075,33.904 "/>
<polygon fill="#AD2115" points="110.521,27.681 130.061,19.952 130.075,33.904 128.159,34.654 "/>
</svg>
