<?xml version="1.0" encoding="utf-8"?>
<!-- Generator: Adobe Illustrator 16.0.0, SVG Export Plug-In . SVG Version: 6.00 Build 0)  -->
<!DOCTYPE svg PUBLIC "-//W3C//DTD SVG 1.1//EN" "http://www.w3.org/Graphics/SVG/1.1/DTD/svg11.dtd">
<svg version="1.1" id="Layer_1" xmlns="http://www.w3.org/2000/svg" xmlns:xlink="http://www.w3.org/1999/xlink" x="0px" y="0px"
	 width="200px" height="200px" viewBox="0 0 200 200" enable-background="new 0 0 200 200" xml:space="preserve">
<g>
	<path fill="#D70751" d="M115.373,105.588c-3.248,0.047,0.613,1.674,4.854,2.326c1.172-0.914,2.234-1.838,3.18-2.738
		C120.767,105.82,118.08,105.836,115.373,105.588"/>
	<path fill="#D70751" d="M132.803,101.242c1.935-2.667,3.345-5.59,3.841-8.612c-0.434,2.152-1.603,4.013-2.704,5.976
		c-6.069,3.824-0.569-2.27-0.003-4.585C127.409,102.238,133.04,98.949,132.803,101.242"/>
	<path fill="#D70751" d="M139.238,84.5c0.392-5.848-1.152-3.999-1.672-1.769C138.172,83.048,138.652,86.855,139.238,84.5"/>
	<path fill="#D70751" d="M103.057,4.564c1.733,0.311,3.745,0.55,3.463,0.963C108.415,5.112,108.846,4.729,103.057,4.564"/>
	<path fill="#D70751" d="M106.52,5.527l-1.225,0.252l1.14-0.101L106.52,5.527"/>
	<path fill="#D70751" d="M160.565,86.717c0.192,5.253-1.537,7.801-3.096,12.312l-2.808,1.403c-2.296,4.459,0.223,2.831-1.421,6.377
		c-3.587,3.189-10.883,9.979-13.218,10.598c-1.705-0.037,1.154-2.012,1.528-2.785c-4.799,3.297-3.851,4.949-11.191,6.949
		l-0.215-0.477c-18.106,8.518-43.256-8.361-42.926-31.394c-0.193,1.463-0.549,1.096-0.951,1.689
		c-0.934-11.852,5.474-23.754,16.278-28.614c10.57-5.232,22.96-3.085,30.531,3.971c-4.158-5.448-12.436-11.222-22.247-10.682
		c-9.608,0.152-18.597,6.259-21.597,12.888c-4.925,3.1-5.496,11.949-7.641,13.568c-2.886,21.212,5.429,30.376,19.495,41.158
		c2.214,1.492,0.623,1.719,0.923,2.855c-4.673-2.189-8.951-5.494-12.471-9.537c1.867,2.732,3.881,5.389,6.486,7.477
		c-4.407-1.492-10.293-10.678-12.013-11.053c7.597,13.602,30.818,23.852,42.979,18.766c-5.627,0.209-12.774,0.117-19.097-2.221
		c-2.654-1.365-6.266-4.197-5.62-4.727c16.595,6.199,33.737,4.695,48.095-6.814c3.653-2.844,7.645-7.684,8.797-7.752
		c-1.736,2.611,0.297,1.256-1.038,3.562c3.642-5.871-1.581-2.391,3.763-10.139l1.976,2.719c-0.734-4.871,6.05-10.789,5.361-18.495
		c1.557-2.356,1.737,2.536,0.085,7.958c2.291-6.015,0.604-6.982,1.193-11.945c0.635,1.667,1.47,3.441,1.898,5.201
		c-1.493-5.812,1.532-9.789,2.28-13.167c-0.735-0.327-2.303,2.57-2.661-4.296c0.053-2.982,0.829-1.563,1.13-2.297
		c-0.586-0.336-2.122-2.622-3.058-7.007c0.678-1.03,1.812,2.671,2.734,2.823c-0.593-3.486-1.615-6.145-1.655-8.819
		c-2.693-5.628-0.953,0.75-3.139-2.416c-2.866-8.941,2.38-2.076,2.732-6.138c4.346,6.294,6.823,16.05,7.96,20.091
		c-0.868-4.927-2.27-9.699-3.981-14.317c1.32,0.555-2.125-10.137,1.715-3.056c-4.104-15.094-17.558-29.199-29.937-35.816
		c1.515,1.385,3.428,3.126,2.741,3.399c-6.156-3.666-5.074-3.951-5.955-5.5c-5.016-2.04-5.345,0.164-8.666,0.003
		c-9.453-5.013-11.274-4.48-19.974-7.622l0.397,1.85c-6.265-2.086-7.297,0.792-14.065,0.007c-0.413-0.322,2.169-1.164,4.293-1.473
		c-6.055,0.799-5.771-1.193-11.695,0.22c1.46-1.024,3.004-1.702,4.561-2.573c-4.938,0.3-11.786,2.874-9.672,0.533
		c-8.053,3.593-22.356,8.637-30.383,16.163l-0.253-1.687c-3.678,4.415-16.038,13.186-17.022,18.904l-0.983,0.229
		c-1.913,3.24-3.151,6.913-4.67,10.247c-2.503,4.265-3.669,1.642-3.312,2.31c-4.923,9.982-7.369,18.37-9.481,25.249
		c1.506,2.25,0.037,13.546,0.605,22.586c-2.473,44.648,31.335,87.996,68.289,98.005c5.415,1.938,13.472,1.863,20.323,2.062
		c-8.085-2.312-9.13-1.225-17.003-3.971c-5.682-2.674-6.926-5.729-10.948-9.221l1.592,2.814c-7.891-2.793-4.589-3.457-11.01-5.49
		l1.701-2.219c-2.557-0.195-6.773-4.312-7.928-6.592l-2.796,0.111c-3.362-4.148-5.153-7.137-5.022-9.453l-0.904,1.611
		c-1.023-1.758-12.368-15.555-6.482-12.346c-1.093-0.998-2.547-1.625-4.123-4.488l1.198-1.369c-2.83-3.645-5.212-8.314-5.031-9.869
		c1.511,2.041,2.559,2.422,3.597,2.77c-7.151-17.744-7.552-0.979-12.971-18.061l1.147-0.094c-0.879-1.322-1.412-2.76-2.118-4.17
		l0.498-4.969c-5.148-5.953-1.44-25.313-0.697-35.931c0.516-4.318,4.298-8.914,7.175-16.121l-1.753-0.303
		c3.352-5.845,19.132-23.473,26.44-22.566c3.541-4.447-0.702-0.016-1.395-1.137c7.776-8.048,10.223-5.686,15.47-7.134
		c5.66-3.359-4.858,1.311-2.172-1.281c9.782-2.499,6.933-5.681,19.698-6.95c1.347,0.766-3.126,1.183-4.248,2.178
		c8.153-3.989,25.8-3.082,37.261,2.213c13.301,6.216,28.243,24.589,28.832,41.876l0.671,0.18
		c-0.339,6.872,1.052,14.818-1.359,22.118L160.565,86.717"/>
	<path fill="#D70751" d="M79.924,110.047l-0.455,2.277c2.134,2.898,3.828,6.041,6.553,8.307
		C84.061,116.803,82.604,115.221,79.924,110.047"/>
	<path fill="#D70751" d="M84.97,109.85c-1.13-1.25-1.799-2.754-2.547-4.252c0.715,2.633,2.182,4.895,3.546,7.197L84.97,109.85"/>
	<path fill="#D70751" d="M174.258,90.442l-0.479,1.196c-0.873,6.213-2.762,12.362-5.658,18.063
		C171.321,103.686,173.39,97.106,174.258,90.442"/>
	<path fill="#D70751" d="M103.699,3.006c2.195-0.805,5.397-0.441,7.727-0.971c-3.035,0.255-6.057,0.407-9.041,0.792L103.699,3.006"
		/>
	<path fill="#D70751" d="M26.608,43.999c0.507,4.685-3.524,6.503,0.894,3.414C29.868,42.081,26.575,45.94,26.608,43.999"/>
	<path fill="#D70751" d="M21.418,65.679c1.017-3.123,1.202-4.998,1.59-6.806C20.196,62.468,21.715,63.234,21.418,65.679"/>
</g>
</svg>
